<?xml version="1.0" encoding="UTF-8" standalone="no"?>
<!DOCTYPE svg PUBLIC "-//W3C//DTD SVG 1.1//EN"
 "http://www.w3.org/Graphics/SVG/1.1/DTD/svg11.dtd">
<!-- Generated by graphviz version 2.40.1 (0)
 -->
<!-- Title: G Pages: 1 -->
<svg width="347pt" height="597pt"
 viewBox="0.00 0.00 347.35 597.27" xmlns="http://www.w3.org/2000/svg" xmlns:xlink="http://www.w3.org/1999/xlink">
<g id="graph0" class="graph" transform="scale(1 1) rotate(0) translate(.72 596.5456)">
<title>G</title>
<!-- 0 -->
<g id="node1" class="node">
<title>0</title>
<ellipse fill="none" stroke="#000000" cx="187.1732" cy="-507.7385" rx="30.5947" ry="18"/>
<text text-anchor="middle" x="187.1732" y="-504.0385" font-family="Times,serif" font-size="14.00" fill="#000000">C | C</text>
</g>
<!-- 1 -->
<g id="node2" class="node">
<title>1</title>
<ellipse fill="none" stroke="#000000" cx="204.9521" cy="-435.3323" rx="30.5947" ry="18"/>
<text text-anchor="middle" x="204.9521" y="-431.6323" font-family="Times,serif" font-size="14.00" fill="#000000">C | C</text>
</g>
<!-- 0&#45;&#45;1 -->
<g id="edge1" class="edge">
<title>0&#45;&#45;1</title>
<path fill="none" stroke="#000000" d="M191.568,-489.8403C194.3032,-478.7008 197.8089,-464.4235 200.5462,-453.2755"/>
<text text-anchor="middle" x="184.0571" y="-475.3579" font-family="Times,serif" font-size="14.00" fill="#000000">&#45; | =</text>
</g>
<!-- 10 -->
<g id="node11" class="node">
<title>10</title>
<ellipse fill="none" stroke="#000000" cx="166.2134" cy="-577.8256" rx="34.394" ry="18"/>
<text text-anchor="middle" x="166.2134" y="-574.1256" font-family="Times,serif" font-size="14.00" fill="#000000">O | O&#45;</text>
</g>
<!-- 0&#45;&#45;10 -->
<g id="edge2" class="edge">
<title>0&#45;&#45;10</title>
<path fill="none" stroke="#000000" stroke-dasharray="5,2" d="M181.7755,-525.7877C178.6704,-536.1708 174.7799,-549.1803 171.6656,-559.594"/>
<text text-anchor="middle" x="174.2206" y="-546.4908" font-family="Times,serif" font-size="14.00" fill="#000000">&#45;</text>
</g>
<!-- 2 -->
<g id="node3" class="node">
<title>2</title>
<ellipse fill="none" stroke="#000000" cx="234.3158" cy="-361.9286" rx="35.9954" ry="18"/>
<text text-anchor="middle" x="234.3158" y="-358.2286" font-family="Times,serif" font-size="14.00" fill="#000000">C | C+</text>
</g>
<!-- 1&#45;&#45;2 -->
<g id="edge3" class="edge">
<title>1&#45;&#45;2</title>
<path fill="none" stroke="#000000" d="M212.0602,-417.5633C216.643,-406.1073 222.5814,-391.2623 227.1713,-379.7884"/>
<text text-anchor="middle" x="207.6158" y="-402.4759" font-family="Times,serif" font-size="14.00" fill="#000000">= | &#45;</text>
</g>
<!-- 3 -->
<g id="node4" class="node">
<title>3</title>
<ellipse fill="none" stroke="#000000" cx="194.8382" cy="-293.9331" rx="30.5947" ry="18"/>
<text text-anchor="middle" x="194.8382" y="-290.2331" font-family="Times,serif" font-size="14.00" fill="#000000">C | C</text>
</g>
<!-- 2&#45;&#45;3 -->
<g id="edge4" class="edge">
<title>2&#45;&#45;3</title>
<path fill="none" stroke="#000000" d="M224.1493,-344.4181C218.2095,-334.1874 210.7437,-321.3285 204.8335,-311.1489"/>
<text text-anchor="middle" x="204.4914" y="-331.5835" font-family="Times,serif" font-size="14.00" fill="#000000">&#45; | &#45;</text>
</g>
<!-- 9 -->
<g id="node10" class="node">
<title>9</title>
<ellipse fill="none" stroke="#000000" cx="315.3648" cy="-360.8705" rx="30.5947" ry="18"/>
<text text-anchor="middle" x="315.3648" y="-357.1705" font-family="Times,serif" font-size="14.00" fill="#000000">C | C</text>
</g>
<!-- 2&#45;&#45;9 -->
<g id="edge5" class="edge">
<title>2&#45;&#45;9</title>
<path fill="none" stroke="#000000" d="M270.101,-361.4615C274.8505,-361.3995 279.688,-361.3363 284.3478,-361.2755"/>
<text text-anchor="middle" x="277.2244" y="-350.1685" font-family="Times,serif" font-size="14.00" fill="#000000">&#45; | &#45;</text>
</g>
<!-- 4 -->
<g id="node5" class="node">
<title>4</title>
<ellipse fill="none" stroke="#000000" cx="162.1829" cy="-226.6037" rx="30.5947" ry="18"/>
<text text-anchor="middle" x="162.1829" y="-222.9037" font-family="Times,serif" font-size="14.00" fill="#000000">C | C</text>
</g>
<!-- 3&#45;&#45;4 -->
<g id="edge6" class="edge">
<title>3&#45;&#45;4</title>
<path fill="none" stroke="#000000" d="M186.4286,-276.5941C181.5909,-266.6195 175.5294,-254.1219 170.6774,-244.1179"/>
<text text-anchor="middle" x="168.553" y="-264.156" font-family="Times,serif" font-size="14.00" fill="#000000">&#45; | &#45;</text>
</g>
<!-- 5 -->
<g id="node6" class="node">
<title>5</title>
<ellipse fill="none" stroke="#000000" cx="133.7311" cy="-157.8272" rx="30.5947" ry="18"/>
<text text-anchor="middle" x="133.7311" y="-154.1272" font-family="Times,serif" font-size="14.00" fill="#000000">C | C</text>
</g>
<!-- 4&#45;&#45;5 -->
<g id="edge7" class="edge">
<title>4&#45;&#45;5</title>
<path fill="none" stroke="#000000" d="M154.8558,-208.892C150.6408,-198.703 145.3596,-185.9368 141.1322,-175.7179"/>
<text text-anchor="middle" x="137.994" y="-196.105" font-family="Times,serif" font-size="14.00" fill="#000000">&#45; | &#45;</text>
</g>
<!-- 6 -->
<g id="node7" class="node">
<title>6</title>
<ellipse fill="none" stroke="#000000" cx="106.3288" cy="-85.6772" rx="30.5947" ry="18"/>
<text text-anchor="middle" x="106.3288" y="-81.9772" font-family="Times,serif" font-size="14.00" fill="#000000">C | C</text>
</g>
<!-- 5&#45;&#45;6 -->
<g id="edge8" class="edge">
<title>5&#45;&#45;6</title>
<path fill="none" stroke="#000000" d="M126.9574,-139.9924C122.71,-128.8088 117.2571,-114.4514 113.0244,-103.3069"/>
<text text-anchor="middle" x="105.9909" y="-125.4496" font-family="Times,serif" font-size="14.00" fill="#000000">= | =</text>
</g>
<!-- 7 -->
<g id="node8" class="node">
<title>7</title>
<ellipse fill="none" stroke="#000000" cx="147.216" cy="-18" rx="30.5947" ry="18"/>
<text text-anchor="middle" x="147.216" y="-14.3" font-family="Times,serif" font-size="14.00" fill="#000000">C | C</text>
</g>
<!-- 6&#45;&#45;7 -->
<g id="edge9" class="edge">
<title>6&#45;&#45;7</title>
<path fill="none" stroke="#000000" d="M116.6463,-68.5994C122.7972,-58.4184 130.5842,-45.5292 136.7595,-35.3078"/>
<text text-anchor="middle" x="116.7029" y="-55.7536" font-family="Times,serif" font-size="14.00" fill="#000000">&#45; | &#45;</text>
</g>
<!-- 8 -->
<g id="node9" class="node">
<title>8</title>
<ellipse fill="none" stroke="#000000" cx="30.5473" cy="-63.3001" rx="30.5947" ry="18"/>
<text text-anchor="middle" x="30.5473" y="-59.6001" font-family="Times,serif" font-size="14.00" fill="#000000">C | C</text>
</g>
<!-- 6&#45;&#45;8 -->
<g id="edge10" class="edge">
<title>6&#45;&#45;8</title>
<path fill="none" stroke="#000000" d="M78.9699,-77.5986C72.1018,-75.5705 64.7322,-73.3944 57.866,-71.3669"/>
<text text-anchor="middle" x="73.4179" y="-63.2827" font-family="Times,serif" font-size="14.00" fill="#000000">&#45; | &#45;</text>
</g>
</g>
</svg>
