<?xml version="1.0" encoding="UTF-8" standalone="no"?>
<!DOCTYPE svg PUBLIC "-//W3C//DTD SVG 1.1//EN"
 "http://www.w3.org/Graphics/SVG/1.1/DTD/svg11.dtd">
<!-- Generated by graphviz version 2.40.1 (0)
 -->
<!-- Title: G Pages: 1 -->
<svg width="444pt" height="482pt"
 viewBox="0.00 0.00 444.10 481.67" xmlns="http://www.w3.org/2000/svg" xmlns:xlink="http://www.w3.org/1999/xlink">
<g id="graph0" class="graph" transform="scale(1 1) rotate(0) translate(.72 480.9475)">
<title>G</title>
<!-- 0 -->
<g id="node1" class="node">
<title>0</title>
<ellipse fill="none" stroke="#000000" cx="305.0916" cy="-462.2275" rx="35.9954" ry="18"/>
<text text-anchor="middle" x="305.0916" y="-458.5275" font-family="Times,serif" font-size="14.00" fill="#000000">C | C+</text>
</g>
<!-- 1 -->
<g id="node2" class="node">
<title>1</title>
<ellipse fill="none" stroke="#000000" cx="311.0201" cy="-386.3328" rx="30.5947" ry="18"/>
<text text-anchor="middle" x="311.0201" y="-382.6328" font-family="Times,serif" font-size="14.00" fill="#000000">C | C</text>
</g>
<!-- 0&#45;&#45;1 -->
<g id="edge1" class="edge">
<title>0&#45;&#45;1</title>
<path fill="none" stroke="#000000" d="M306.5267,-443.8555C307.4588,-431.923 308.6687,-416.4343 309.5982,-404.5356"/>
<text text-anchor="middle" x="296.0624" y="-427.9956" font-family="Times,serif" font-size="14.00" fill="#000000">= | &#45;</text>
</g>
<!-- 2 -->
<g id="node3" class="node">
<title>2</title>
<ellipse fill="none" stroke="#000000" cx="333.7258" cy="-306.834" rx="30.5947" ry="18"/>
<text text-anchor="middle" x="333.7258" y="-303.134" font-family="Times,serif" font-size="14.00" fill="#000000">C | C</text>
</g>
<!-- 1&#45;&#45;2 -->
<g id="edge2" class="edge">
<title>1&#45;&#45;2</title>
<path fill="none" stroke="#000000" d="M316.1723,-368.2933C319.8883,-355.2829 324.8826,-337.7962 328.5939,-324.8022"/>
<text text-anchor="middle" x="310.3831" y="-350.3477" font-family="Times,serif" font-size="14.00" fill="#000000">&#45; | =</text>
</g>
<!-- 3 -->
<g id="node4" class="node">
<title>3</title>
<ellipse fill="none" stroke="#000000" cx="269.7371" cy="-257.8539" rx="30.5947" ry="18"/>
<text text-anchor="middle" x="269.7371" y="-254.1539" font-family="Times,serif" font-size="14.00" fill="#000000">C | C</text>
</g>
<!-- 2&#45;&#45;3 -->
<g id="edge3" class="edge">
<title>2&#45;&#45;3</title>
<path fill="none" stroke="#000000" d="M314.8731,-292.4033C306.6153,-286.0823 296.9437,-278.6793 288.6761,-272.3508"/>
<text text-anchor="middle" x="291.7746" y="-286.177" font-family="Times,serif" font-size="14.00" fill="#000000">&#45; | &#45;</text>
</g>
<!-- 9 -->
<g id="node10" class="node">
<title>9</title>
<ellipse fill="none" stroke="#000000" cx="395.9144" cy="-252.2133" rx="30.5947" ry="18"/>
<text text-anchor="middle" x="395.9144" y="-248.5133" font-family="Times,serif" font-size="14.00" fill="#000000">C | C</text>
</g>
<!-- 2&#45;&#45;9 -->
<g id="edge4" class="edge">
<title>2&#45;&#45;9</title>
<path fill="none" stroke="#000000" d="M351.0488,-291.6191C359.6743,-284.0433 370.0715,-274.9112 378.6843,-267.3466"/>
<text text-anchor="middle" x="354.8665" y="-268.2829" font-family="Times,serif" font-size="14.00" fill="#000000">&#45; | &#45;</text>
</g>
<!-- 10 -->
<g id="node11" class="node">
<title>10</title>
<ellipse fill="none" stroke="#000000" cx="408.2125" cy="-334.2317" rx="34.394" ry="18"/>
<text text-anchor="middle" x="408.2125" y="-330.5317" font-family="Times,serif" font-size="14.00" fill="#000000">O | O&#45;</text>
</g>
<!-- 2&#45;&#45;10 -->
<g id="edge5" class="edge">
<title>2&#45;&#45;10</title>
<path fill="none" stroke="#000000" stroke-dasharray="5,2" d="M359.7776,-316.4164C366.3222,-318.8236 373.3751,-321.4178 380.0191,-323.8616"/>
<text text-anchor="middle" x="367.3983" y="-323.939" font-family="Times,serif" font-size="14.00" fill="#000000">&#45;</text>
</g>
<!-- 4 -->
<g id="node5" class="node">
<title>4</title>
<ellipse fill="none" stroke="#000000" cx="212.9428" cy="-207.7226" rx="30.5947" ry="18"/>
<text text-anchor="middle" x="212.9428" y="-204.0226" font-family="Times,serif" font-size="14.00" fill="#000000">C | C</text>
</g>
<!-- 3&#45;&#45;4 -->
<g id="edge6" class="edge">
<title>3&#45;&#45;4</title>
<path fill="none" stroke="#000000" d="M252.6969,-242.8129C245.5086,-236.4679 237.1579,-229.0969 229.971,-222.753"/>
<text text-anchor="middle" x="231.3339" y="-236.5829" font-family="Times,serif" font-size="14.00" fill="#000000">&#45; | &#45;</text>
</g>
<!-- 5 -->
<g id="node6" class="node">
<title>5</title>
<ellipse fill="none" stroke="#000000" cx="161.3041" cy="-153.5476" rx="30.5947" ry="18"/>
<text text-anchor="middle" x="161.3041" y="-149.8476" font-family="Times,serif" font-size="14.00" fill="#000000">C | C</text>
</g>
<!-- 4&#45;&#45;5 -->
<g id="edge7" class="edge">
<title>4&#45;&#45;5</title>
<path fill="none" stroke="#000000" d="M197.7288,-191.7613C191.0647,-184.7699 183.2598,-176.5817 176.5878,-169.582"/>
<text text-anchor="middle" x="197.1583" y="-169.4717" font-family="Times,serif" font-size="14.00" fill="#000000">&#45; | &#45;</text>
</g>
<!-- 6 -->
<g id="node7" class="node">
<title>6</title>
<ellipse fill="none" stroke="#000000" cx="109.2825" cy="-96.2985" rx="30.5947" ry="18"/>
<text text-anchor="middle" x="109.2825" y="-92.5985" font-family="Times,serif" font-size="14.00" fill="#000000">C | C</text>
</g>
<!-- 5&#45;&#45;6 -->
<g id="edge8" class="edge">
<title>5&#45;&#45;6</title>
<path fill="none" stroke="#000000" d="M146.8132,-137.6005C139.7181,-129.7924 131.1899,-120.4073 124.0571,-112.5578"/>
<text text-anchor="middle" x="149.4352" y="-113.8792" font-family="Times,serif" font-size="14.00" fill="#000000">= | =</text>
</g>
<!-- 7 -->
<g id="node8" class="node">
<title>7</title>
<ellipse fill="none" stroke="#000000" cx="121.0563" cy="-18" rx="30.5947" ry="18"/>
<text text-anchor="middle" x="121.0563" y="-14.3" font-family="Times,serif" font-size="14.00" fill="#000000">C | C</text>
</g>
<!-- 6&#45;&#45;7 -->
<g id="edge9" class="edge">
<title>6&#45;&#45;7</title>
<path fill="none" stroke="#000000" d="M112.0132,-78.1384C113.9153,-65.4891 116.4415,-48.6892 118.3403,-36.0616"/>
<text text-anchor="middle" x="105.1768" y="-60.9" font-family="Times,serif" font-size="14.00" fill="#000000">&#45; | &#45;</text>
</g>
<!-- 8 -->
<g id="node9" class="node">
<title>8</title>
<ellipse fill="none" stroke="#000000" cx="30.5473" cy="-103.6109" rx="30.5947" ry="18"/>
<text text-anchor="middle" x="30.5473" y="-99.9109" font-family="Times,serif" font-size="14.00" fill="#000000">C | C</text>
</g>
<!-- 6&#45;&#45;8 -->
<g id="edge10" class="edge">
<title>6&#45;&#45;8</title>
<path fill="none" stroke="#000000" d="M79.0666,-99.1047C73.082,-99.6605 66.7987,-100.2441 60.8124,-100.8"/>
<text text-anchor="middle" x="69.9395" y="-88.7524" font-family="Times,serif" font-size="14.00" fill="#000000">&#45; | &#45;</text>
</g>
</g>
</svg>
