<?xml version="1.0" encoding="UTF-8" standalone="no"?>
<!DOCTYPE svg PUBLIC "-//W3C//DTD SVG 1.1//EN"
 "http://www.w3.org/Graphics/SVG/1.1/DTD/svg11.dtd">
<!-- Generated by graphviz version 2.40.1 (0)
 -->
<!-- Title: G Pages: 1 -->
<svg width="385pt" height="378pt"
 viewBox="0.00 0.00 385.16 377.69" xmlns="http://www.w3.org/2000/svg" xmlns:xlink="http://www.w3.org/1999/xlink">
<g id="graph0" class="graph" transform="scale(1 1) rotate(0) translate(.72 376.9665)">
<title>G</title>
<!-- 0 -->
<g id="node1" class="node">
<title>0</title>
<ellipse fill="none" stroke="#000000" cx="177.7747" cy="-230.1561" rx="35.9954" ry="18"/>
<text text-anchor="middle" x="177.7747" y="-226.4561" font-family="Times,serif" font-size="14.00" fill="#000000">C+ | C</text>
</g>
<!-- 1 -->
<g id="node2" class="node">
<title>1</title>
<ellipse fill="none" stroke="#000000" cx="275.5179" cy="-239.2074" rx="30.5947" ry="18"/>
<text text-anchor="middle" x="275.5179" y="-235.5074" font-family="Times,serif" font-size="14.00" fill="#000000">C | C</text>
</g>
<!-- 0&#45;&#45;1 -->
<g id="edge1" class="edge">
<title>0&#45;&#45;1</title>
<path fill="none" stroke="#000000" d="M213.0622,-233.4238C223.5613,-234.3961 234.9688,-235.4524 245.1271,-236.3931"/>
<text text-anchor="middle" x="234.0947" y="-223.7085" font-family="Times,serif" font-size="14.00" fill="#000000">&#45; | &#45;</text>
</g>
<!-- 5 -->
<g id="node6" class="node">
<title>5</title>
<ellipse fill="none" stroke="#000000" cx="157.2043" cy="-157.7495" rx="30.5947" ry="18"/>
<text text-anchor="middle" x="157.2043" y="-154.0495" font-family="Times,serif" font-size="14.00" fill="#000000">C | C</text>
</g>
<!-- 0&#45;&#45;5 -->
<g id="edge2" class="edge">
<title>0&#45;&#45;5</title>
<path fill="none" stroke="#000000" stroke-dasharray="1,5" d="M172.6899,-212.2579C169.5252,-201.1182 165.469,-186.8409 162.3019,-175.6928"/>
<text text-anchor="middle" x="164.9959" y="-197.7753" font-family="Times,serif" font-size="14.00" fill="#000000">&#45;</text>
</g>
<!-- 2 -->
<g id="node3" class="node">
<title>2</title>
<ellipse fill="none" stroke="#000000" cx="295.932" cy="-311.598" rx="30.5947" ry="18"/>
<text text-anchor="middle" x="295.932" y="-307.898" font-family="Times,serif" font-size="14.00" fill="#000000">C | C</text>
</g>
<!-- 1&#45;&#45;2 -->
<g id="edge3" class="edge">
<title>1&#45;&#45;2</title>
<path fill="none" stroke="#000000" d="M280.5641,-257.1017C283.7047,-268.2388 287.7301,-282.5131 290.8731,-293.6587"/>
<text text-anchor="middle" x="271.7186" y="-279.1802" font-family="Times,serif" font-size="14.00" fill="#000000">= | =</text>
</g>
<!-- 3 -->
<g id="node4" class="node">
<title>3</title>
<ellipse fill="none" stroke="#000000" cx="225.024" cy="-287.3914" rx="30.5947" ry="18"/>
<text text-anchor="middle" x="225.024" y="-283.6914" font-family="Times,serif" font-size="14.00" fill="#000000">C | C</text>
</g>
<!-- 2&#45;&#45;3 -->
<g id="edge4" class="edge">
<title>2&#45;&#45;3</title>
<path fill="none" stroke="#000000" d="M269.1247,-302.4465C263.4772,-300.5186 257.518,-298.4842 251.8691,-296.5558"/>
<text text-anchor="middle" x="250.4969" y="-303.3012" font-family="Times,serif" font-size="14.00" fill="#000000">&#45; | &#45;</text>
</g>
<!-- 9 -->
<g id="node10" class="node">
<title>9</title>
<ellipse fill="none" stroke="#000000" cx="353.1679" cy="-358.2465" rx="30.5947" ry="18"/>
<text text-anchor="middle" x="353.1679" y="-354.5465" font-family="Times,serif" font-size="14.00" fill="#000000">C | C</text>
</g>
<!-- 2&#45;&#45;9 -->
<g id="edge5" class="edge">
<title>2&#45;&#45;9</title>
<path fill="none" stroke="#000000" d="M314.0418,-326.3579C320.7229,-331.8032 328.2914,-337.9716 334.9795,-343.4226"/>
<text text-anchor="middle" x="314.5106" y="-338.6902" font-family="Times,serif" font-size="14.00" fill="#000000">&#45; | &#45;</text>
</g>
<!-- 4 -->
<g id="node5" class="node">
<title>4</title>
<ellipse fill="none" stroke="#000000" cx="225.5285" cy="-189.5116" rx="30.5947" ry="18"/>
<text text-anchor="middle" x="225.5285" y="-185.8116" font-family="Times,serif" font-size="14.00" fill="#000000">C | C</text>
</g>
<!-- 3&#45;&#45;4 -->
<g id="edge6" class="edge">
<title>3&#45;&#45;4</title>
<path fill="none" stroke="#000000" d="M225.1189,-268.9809C225.209,-251.4816 225.3439,-225.3115 225.434,-207.8395"/>
<text text-anchor="middle" x="235.2764" y="-242.2102" font-family="Times,serif" font-size="14.00" fill="#000000">&#45; | &#45;</text>
</g>
<!-- 4&#45;&#45;5 -->
<g id="edge7" class="edge">
<title>4&#45;&#45;5</title>
<path fill="none" stroke="#000000" d="M201.2475,-178.224C194.8037,-175.2285 187.8467,-171.9944 181.407,-169.0007"/>
<text text-anchor="middle" x="181.3273" y="-177.4124" font-family="Times,serif" font-size="14.00" fill="#000000">&#45; | &#45;</text>
</g>
<!-- 6 -->
<g id="node7" class="node">
<title>6</title>
<ellipse fill="none" stroke="#000000" cx="110.0367" cy="-95.7583" rx="35.9954" ry="18"/>
<text text-anchor="middle" x="110.0367" y="-92.0583" font-family="Times,serif" font-size="14.00" fill="#000000">C | C+</text>
</g>
<!-- 5&#45;&#45;6 -->
<g id="edge8" class="edge">
<title>5&#45;&#45;6</title>
<path fill="none" stroke="#000000" d="M144.5643,-141.137C137.9059,-132.3861 129.7522,-121.6699 123.0405,-112.8489"/>
<text text-anchor="middle" x="121.8024" y="-130.793" font-family="Times,serif" font-size="14.00" fill="#000000">= | &#45;</text>
</g>
<!-- 7 -->
<g id="node8" class="node">
<title>7</title>
<ellipse fill="none" stroke="#000000" cx="127.2892" cy="-18" rx="30.5947" ry="18"/>
<text text-anchor="middle" x="127.2892" y="-14.3" font-family="Times,serif" font-size="14.00" fill="#000000">C | C</text>
</g>
<!-- 6&#45;&#45;7 -->
<g id="edge9" class="edge">
<title>6&#45;&#45;7</title>
<path fill="none" stroke="#000000" d="M114.0381,-77.7235C116.8253,-65.1615 120.527,-48.4775 123.3094,-35.937"/>
<text text-anchor="middle" x="108.6738" y="-60.6302" font-family="Times,serif" font-size="14.00" fill="#000000">&#45; | &#45;</text>
</g>
<!-- 8 -->
<g id="node9" class="node">
<title>8</title>
<ellipse fill="none" stroke="#000000" cx="30.5473" cy="-95.0684" rx="30.5947" ry="18"/>
<text text-anchor="middle" x="30.5473" y="-91.3684" font-family="Times,serif" font-size="14.00" fill="#000000">C | C</text>
</g>
<!-- 6&#45;&#45;8 -->
<g id="edge10" class="edge">
<title>6&#45;&#45;8</title>
<path fill="none" stroke="#000000" d="M74.0132,-95.4456C69.7411,-95.4085 65.4111,-95.371 61.2231,-95.3346"/>
<text text-anchor="middle" x="67.6181" y="-84.1901" font-family="Times,serif" font-size="14.00" fill="#000000">&#45; | &#45;</text>
</g>
</g>
</svg>
