<?xml version="1.0" encoding="UTF-8" standalone="no"?>
<!DOCTYPE svg PUBLIC "-//W3C//DTD SVG 1.1//EN"
 "http://www.w3.org/Graphics/SVG/1.1/DTD/svg11.dtd">
<!-- Generated by graphviz version 2.40.1 (0)
 -->
<!-- Title: G Pages: 1 -->
<svg width="283pt" height="266pt"
 viewBox="0.00 0.00 282.90 266.42" xmlns="http://www.w3.org/2000/svg" xmlns:xlink="http://www.w3.org/1999/xlink">
<g id="graph0" class="graph" transform="scale(1 1) rotate(0) translate(.72 265.6965)">
<title>G</title>
<!-- 0 -->
<g id="node1" class="node">
<title>0</title>
<ellipse fill="none" stroke="#000000" cx="30.5473" cy="-216.152" rx="30.5947" ry="18"/>
<text text-anchor="middle" x="30.5473" y="-212.452" font-family="Times,serif" font-size="14.00" fill="#000000">C | C</text>
</g>
<!-- 1 -->
<g id="node2" class="node">
<title>1</title>
<ellipse fill="none" stroke="#000000" cx="112.7532" cy="-205.5288" rx="35.9954" ry="18"/>
<text text-anchor="middle" x="112.7532" y="-201.8288" font-family="Times,serif" font-size="14.00" fill="#000000">C | C+</text>
</g>
<!-- 0&#45;&#45;1 -->
<g id="edge1" class="edge">
<title>0&#45;&#45;1</title>
<path fill="none" stroke="#000000" d="M60.6909,-212.2567C66.2814,-211.5342 72.1636,-210.7741 77.8812,-210.0352"/>
<text text-anchor="middle" x="69.286" y="-199.9459" font-family="Times,serif" font-size="14.00" fill="#000000">&#45; | &#45;</text>
</g>
<!-- 5 -->
<g id="node6" class="node">
<title>5</title>
<ellipse fill="none" stroke="#000000" cx="72.066" cy="-164.4188" rx="30.5947" ry="18"/>
<text text-anchor="middle" x="72.066" y="-160.7188" font-family="Times,serif" font-size="14.00" fill="#000000">C | C</text>
</g>
<!-- 0&#45;&#45;5 -->
<g id="edge2" class="edge">
<title>0&#45;&#45;5</title>
<path fill="none" stroke="#000000" d="M43.6841,-199.7833C48.5305,-193.7445 54.0207,-186.9037 58.8722,-180.8586"/>
<text text-anchor="middle" x="41.2781" y="-179.121" font-family="Times,serif" font-size="14.00" fill="#000000">&#45; | &#45;</text>
</g>
<!-- 2 -->
<g id="node3" class="node">
<title>2</title>
<ellipse fill="none" stroke="#000000" cx="174.3898" cy="-145.2393" rx="30.5947" ry="18"/>
<text text-anchor="middle" x="174.3898" y="-141.5393" font-family="Times,serif" font-size="14.00" fill="#000000">C | C</text>
</g>
<!-- 1&#45;&#45;2 -->
<g id="edge3" class="edge">
<title>1&#45;&#45;2</title>
<path fill="none" stroke="#000000" d="M129.2707,-189.3723C138.2568,-180.5826 149.3272,-169.7541 158.2534,-161.023"/>
<text text-anchor="middle" x="131.762" y="-163.9977" font-family="Times,serif" font-size="14.00" fill="#000000">= | &#45;</text>
</g>
<!-- 3 -->
<g id="node4" class="node">
<title>3</title>
<ellipse fill="none" stroke="#000000" cx="205.3945" cy="-219.3906" rx="30.5947" ry="18"/>
<text text-anchor="middle" x="205.3945" y="-215.6906" font-family="Times,serif" font-size="14.00" fill="#000000">C | C</text>
</g>
<!-- 2&#45;&#45;3 -->
<g id="edge4" class="edge">
<title>2&#45;&#45;3</title>
<path fill="none" stroke="#000000" d="M181.7375,-162.8121C186.6441,-174.5468 193.0743,-189.9253 197.9922,-201.6869"/>
<text text-anchor="middle" x="179.8648" y="-186.0495" font-family="Times,serif" font-size="14.00" fill="#000000">&#45; | &#45;</text>
</g>
<!-- 6 -->
<g id="node7" class="node">
<title>6</title>
<ellipse fill="none" stroke="#000000" cx="110.8155" cy="-92.8295" rx="35.9954" ry="18"/>
<text text-anchor="middle" x="110.8155" y="-89.1295" font-family="Times,serif" font-size="14.00" fill="#000000">C+ | C</text>
</g>
<!-- 2&#45;&#45;6 -->
<g id="edge5" class="edge">
<title>2&#45;&#45;6</title>
<path fill="none" stroke="#000000" stroke-dasharray="1,5" d="M156.342,-130.3609C147.9722,-123.461 138.0287,-115.2637 129.5728,-108.2928"/>
<text text-anchor="middle" x="140.4574" y="-123.1269" font-family="Times,serif" font-size="14.00" fill="#000000">&#45;</text>
</g>
<!-- 9 -->
<g id="node10" class="node">
<title>9</title>
<ellipse fill="none" stroke="#000000" cx="250.9121" cy="-118.0854" rx="30.5947" ry="18"/>
<text text-anchor="middle" x="250.9121" y="-114.3854" font-family="Times,serif" font-size="14.00" fill="#000000">C | C</text>
</g>
<!-- 2&#45;&#45;9 -->
<g id="edge6" class="edge">
<title>2&#45;&#45;9</title>
<path fill="none" stroke="#000000" d="M200.7245,-135.8945C208.4199,-133.1637 216.8305,-130.1792 224.529,-127.4475"/>
<text text-anchor="middle" x="207.6267" y="-120.471" font-family="Times,serif" font-size="14.00" fill="#000000">&#45; | &#45;</text>
</g>
<!-- 4 -->
<g id="node5" class="node">
<title>4</title>
<ellipse fill="none" stroke="#000000" cx="131.0256" cy="-246.9765" rx="30.5947" ry="18"/>
<text text-anchor="middle" x="131.0256" y="-243.2765" font-family="Times,serif" font-size="14.00" fill="#000000">C | C</text>
</g>
<!-- 3&#45;&#45;4 -->
<g id="edge7" class="edge">
<title>3&#45;&#45;4</title>
<path fill="none" stroke="#000000" d="M179.3839,-229.0388C172.0956,-231.7423 164.176,-234.6799 156.8959,-237.3803"/>
<text text-anchor="middle" x="163.1399" y="-222.0096" font-family="Times,serif" font-size="14.00" fill="#000000">&#45; | &#45;</text>
</g>
<!-- 4&#45;&#45;5 -->
<g id="edge8" class="edge">
<title>4&#45;&#45;5</title>
<path fill="none" stroke="#000000" d="M119.0942,-230.2698C108.865,-215.9464 94.2037,-195.417 83.9796,-181.1008"/>
<text text-anchor="middle" x="91.5369" y="-209.4853" font-family="Times,serif" font-size="14.00" fill="#000000">&#45; | &#45;</text>
</g>
<!-- 5&#45;&#45;6 -->
<g id="edge9" class="edge">
<title>5&#45;&#45;6</title>
<path fill="none" stroke="#000000" d="M81.4462,-147.0891C87.4938,-135.9162 95.3304,-121.4381 101.3874,-110.2479"/>
<text text-anchor="middle" x="81.4168" y="-132.4685" font-family="Times,serif" font-size="14.00" fill="#000000">&#45; | &#45;</text>
</g>
<!-- 7 -->
<g id="node8" class="node">
<title>7</title>
<ellipse fill="none" stroke="#000000" cx="139.9798" cy="-18" rx="30.5947" ry="18"/>
<text text-anchor="middle" x="139.9798" y="-14.3" font-family="Times,serif" font-size="14.00" fill="#000000">C | C</text>
</g>
<!-- 6&#45;&#45;7 -->
<g id="edge10" class="edge">
<title>6&#45;&#45;7</title>
<path fill="none" stroke="#000000" d="M117.727,-75.096C122.376,-63.1676 128.4792,-47.508 133.1178,-35.6063"/>
<text text-anchor="middle" x="115.4224" y="-59.1511" font-family="Times,serif" font-size="14.00" fill="#000000">&#45; | &#45;</text>
</g>
<!-- 8 -->
<g id="node9" class="node">
<title>8</title>
<ellipse fill="none" stroke="#000000" cx="45.9671" cy="-43.5278" rx="30.5947" ry="18"/>
<text text-anchor="middle" x="45.9671" y="-39.8278" font-family="Times,serif" font-size="14.00" fill="#000000">C | C</text>
</g>
<!-- 6&#45;&#45;8 -->
<g id="edge11" class="edge">
<title>6&#45;&#45;8</title>
<path fill="none" stroke="#000000" d="M91.0065,-77.7695C82.663,-71.4263 72.9993,-64.0794 64.7675,-57.821"/>
<text text-anchor="middle" x="87.887" y="-56.5953" font-family="Times,serif" font-size="14.00" fill="#000000">&#45; | &#45;</text>
</g>
</g>
</svg>
