<?xml version="1.0" encoding="UTF-8" standalone="no"?>
<!DOCTYPE svg PUBLIC "-//W3C//DTD SVG 1.1//EN"
 "http://www.w3.org/Graphics/SVG/1.1/DTD/svg11.dtd">
<!-- Generated by graphviz version 2.40.1 (0)
 -->
<!-- Title: G Pages: 1 -->
<svg width="333pt" height="294pt"
 viewBox="0.00 0.00 333.21 294.01" xmlns="http://www.w3.org/2000/svg" xmlns:xlink="http://www.w3.org/1999/xlink">
<g id="graph0" class="graph" transform="scale(1 1) rotate(0) translate(.72 293.2889)">
<title>G</title>
<!-- 0 -->
<g id="node1" class="node">
<title>0</title>
<ellipse fill="none" stroke="#000000" cx="125.2236" cy="-177.3338" rx="30.5947" ry="18"/>
<text text-anchor="middle" x="125.2236" y="-173.6338" font-family="Times,serif" font-size="14.00" fill="#000000">C | C</text>
</g>
<!-- 1 -->
<g id="node2" class="node">
<title>1</title>
<ellipse fill="none" stroke="#000000" cx="178.9379" cy="-130.9494" rx="30.5947" ry="18"/>
<text text-anchor="middle" x="178.9379" y="-127.2494" font-family="Times,serif" font-size="14.00" fill="#000000">C | C</text>
</g>
<!-- 0&#45;&#45;1 -->
<g id="edge1" class="edge">
<title>0&#45;&#45;1</title>
<path fill="none" stroke="#000000" d="M142.5148,-162.4022C148.6485,-157.1055 155.548,-151.1475 161.6791,-145.8531"/>
<text text-anchor="middle" x="162.0969" y="-157.9276" font-family="Times,serif" font-size="14.00" fill="#000000">&#45; | &#45;</text>
</g>
<!-- 5 -->
<g id="node6" class="node">
<title>5</title>
<ellipse fill="none" stroke="#000000" cx="59.7116" cy="-174.6976" rx="30.5947" ry="18"/>
<text text-anchor="middle" x="59.7116" y="-170.9976" font-family="Times,serif" font-size="14.00" fill="#000000">C | C</text>
</g>
<!-- 0&#45;&#45;5 -->
<g id="edge2" class="edge">
<title>0&#45;&#45;5</title>
<path fill="none" stroke="#000000" d="M94.3859,-176.0929C93.0584,-176.0395 91.7267,-175.9859 90.3996,-175.9325"/>
<text text-anchor="middle" x="92.3927" y="-164.8127" font-family="Times,serif" font-size="14.00" fill="#000000">&#45; | &#45;</text>
</g>
<!-- 2 -->
<g id="node3" class="node">
<title>2</title>
<ellipse fill="none" stroke="#000000" cx="223.8671" cy="-203.5453" rx="35.9954" ry="18"/>
<text text-anchor="middle" x="223.8671" y="-199.8453" font-family="Times,serif" font-size="14.00" fill="#000000">C | C+</text>
</g>
<!-- 1&#45;&#45;2 -->
<g id="edge3" class="edge">
<title>1&#45;&#45;2</title>
<path fill="none" stroke="#000000" d="M189.5855,-148.1536C196.6437,-159.5583 205.8778,-174.4785 212.9838,-185.9603"/>
<text text-anchor="middle" x="189.2846" y="-170.857" font-family="Times,serif" font-size="14.00" fill="#000000">= | &#45;</text>
</g>
<!-- 6 -->
<g id="node7" class="node">
<title>6</title>
<ellipse fill="none" stroke="#000000" cx="100.6533" cy="-95.516" rx="35.9954" ry="18"/>
<text text-anchor="middle" x="100.6533" y="-91.816" font-family="Times,serif" font-size="14.00" fill="#000000">C+ | C</text>
</g>
<!-- 1&#45;&#45;6 -->
<g id="edge4" class="edge">
<title>1&#45;&#45;6</title>
<path fill="none" stroke="#000000" stroke-dasharray="1,5" d="M154.5973,-119.9323C145.9795,-116.0317 136.2392,-111.623 127.4302,-107.6358"/>
<text text-anchor="middle" x="138.5137" y="-117.584" font-family="Times,serif" font-size="14.00" fill="#000000">&#45;</text>
</g>
<!-- 3 -->
<g id="node4" class="node">
<title>3</title>
<ellipse fill="none" stroke="#000000" cx="174.6115" cy="-274.5689" rx="30.5947" ry="18"/>
<text text-anchor="middle" x="174.6115" y="-270.8689" font-family="Times,serif" font-size="14.00" fill="#000000">C | C</text>
</g>
<!-- 2&#45;&#45;3 -->
<g id="edge5" class="edge">
<title>2&#45;&#45;3</title>
<path fill="none" stroke="#000000" d="M211.9437,-220.7381C204.1995,-231.9048 194.1473,-246.3993 186.4251,-257.5344"/>
<text text-anchor="middle" x="189.1844" y="-242.9363" font-family="Times,serif" font-size="14.00" fill="#000000">&#45; | &#45;</text>
</g>
<!-- 9 -->
<g id="node10" class="node">
<title>9</title>
<ellipse fill="none" stroke="#000000" cx="301.2256" cy="-208.4427" rx="30.5947" ry="18"/>
<text text-anchor="middle" x="301.2256" y="-204.7427" font-family="Times,serif" font-size="14.00" fill="#000000">C | C</text>
</g>
<!-- 2&#45;&#45;9 -->
<g id="edge6" class="edge">
<title>2&#45;&#45;9</title>
<path fill="none" stroke="#000000" d="M259.3766,-205.7933C263.1896,-206.0347 267.044,-206.2787 270.7902,-206.5159"/>
<text text-anchor="middle" x="260.0834" y="-194.9546" font-family="Times,serif" font-size="14.00" fill="#000000">&#45; | &#45;</text>
</g>
<!-- 4 -->
<g id="node5" class="node">
<title>4</title>
<ellipse fill="none" stroke="#000000" cx="90.0434" cy="-257.1454" rx="30.5947" ry="18"/>
<text text-anchor="middle" x="90.0434" y="-253.4454" font-family="Times,serif" font-size="14.00" fill="#000000">C | C</text>
</g>
<!-- 3&#45;&#45;4 -->
<g id="edge7" class="edge">
<title>3&#45;&#45;4</title>
<path fill="none" stroke="#000000" d="M145.508,-268.5727C136.9079,-266.8008 127.4995,-264.8624 118.9141,-263.0936"/>
<text text-anchor="middle" x="132.211" y="-254.6331" font-family="Times,serif" font-size="14.00" fill="#000000">&#45; | &#45;</text>
</g>
<!-- 4&#45;&#45;5 -->
<g id="edge8" class="edge">
<title>4&#45;&#45;5</title>
<path fill="none" stroke="#000000" d="M83.4619,-239.2554C78.3742,-225.4262 71.3647,-206.3731 66.2803,-192.5527"/>
<text text-anchor="middle" x="64.8711" y="-219.704" font-family="Times,serif" font-size="14.00" fill="#000000">&#45; | &#45;</text>
</g>
<!-- 5&#45;&#45;6 -->
<g id="edge9" class="edge">
<title>5&#45;&#45;6</title>
<path fill="none" stroke="#000000" d="M68.7979,-157.1247C75.5826,-144.0029 84.8138,-126.1497 91.5924,-113.0398"/>
<text text-anchor="middle" x="70.1952" y="-138.8822" font-family="Times,serif" font-size="14.00" fill="#000000">&#45; | &#45;</text>
</g>
<!-- 7 -->
<g id="node8" class="node">
<title>7</title>
<ellipse fill="none" stroke="#000000" cx="126.1443" cy="-18" rx="30.5947" ry="18"/>
<text text-anchor="middle" x="126.1443" y="-14.3" font-family="Times,serif" font-size="14.00" fill="#000000">C | C</text>
</g>
<!-- 6&#45;&#45;7 -->
<g id="edge10" class="edge">
<title>6&#45;&#45;7</title>
<path fill="none" stroke="#000000" d="M106.5655,-77.5374C110.6837,-65.0145 116.1531,-48.3825 120.2642,-35.8811"/>
<text text-anchor="middle" x="103.4149" y="-60.5092" font-family="Times,serif" font-size="14.00" fill="#000000">&#45; | &#45;</text>
</g>
<!-- 8 -->
<g id="node9" class="node">
<title>8</title>
<ellipse fill="none" stroke="#000000" cx="30.5473" cy="-55.9618" rx="30.5947" ry="18"/>
<text text-anchor="middle" x="30.5473" y="-52.2618" font-family="Times,serif" font-size="14.00" fill="#000000">C | C</text>
</g>
<!-- 6&#45;&#45;8 -->
<g id="edge11" class="edge">
<title>6&#45;&#45;8</title>
<path fill="none" stroke="#000000" d="M76.5268,-81.9037C68.9221,-77.6131 60.5551,-72.8923 53.0669,-68.6674"/>
<text text-anchor="middle" x="54.7968" y="-79.0855" font-family="Times,serif" font-size="14.00" fill="#000000">&#45; | &#45;</text>
</g>
</g>
</svg>
