<?xml version="1.0" encoding="UTF-8" standalone="no"?>
<!DOCTYPE svg PUBLIC "-//W3C//DTD SVG 1.1//EN"
 "http://www.w3.org/Graphics/SVG/1.1/DTD/svg11.dtd">
<!-- Generated by graphviz version 2.40.1 (0)
 -->
<!-- Title: G Pages: 1 -->
<svg width="324pt" height="355pt"
 viewBox="0.00 0.00 324.44 354.79" xmlns="http://www.w3.org/2000/svg" xmlns:xlink="http://www.w3.org/1999/xlink">
<g id="graph0" class="graph" transform="scale(1 1) rotate(0) translate(.72 354.0706)">
<title>G</title>
<!-- 0 -->
<g id="node1" class="node">
<title>0</title>
<ellipse fill="none" stroke="#000000" cx="190.7991" cy="-189.4316" rx="30.5947" ry="18"/>
<text text-anchor="middle" x="190.7991" y="-185.7316" font-family="Times,serif" font-size="14.00" fill="#000000">C | C</text>
</g>
<!-- 1 -->
<g id="node2" class="node">
<title>1</title>
<ellipse fill="none" stroke="#000000" cx="144.099" cy="-272.7365" rx="30.5947" ry="18"/>
<text text-anchor="middle" x="144.099" y="-269.0365" font-family="Times,serif" font-size="14.00" fill="#000000">C | C</text>
</g>
<!-- 0&#45;&#45;1 -->
<g id="edge1" class="edge">
<title>0&#45;&#45;1</title>
<path fill="none" stroke="#000000" d="M181.1228,-206.6925C173.1079,-220.9896 161.7743,-241.2067 153.7629,-255.4978"/>
<text text-anchor="middle" x="177.4428" y="-219.8951" font-family="Times,serif" font-size="14.00" fill="#000000">&#45; | &#45;</text>
</g>
<!-- 5 -->
<g id="node6" class="node">
<title>5</title>
<ellipse fill="none" stroke="#000000" cx="217.2232" cy="-115.5079" rx="30.5947" ry="18"/>
<text text-anchor="middle" x="217.2232" y="-111.8079" font-family="Times,serif" font-size="14.00" fill="#000000">C | C</text>
</g>
<!-- 0&#45;&#45;5 -->
<g id="edge2" class="edge">
<title>0&#45;&#45;5</title>
<path fill="none" stroke="#000000" d="M197.1956,-171.5368C201.3501,-159.9141 206.7428,-144.8277 210.8855,-133.238"/>
<text text-anchor="middle" x="194.0406" y="-156.1874" font-family="Times,serif" font-size="14.00" fill="#000000">&#45; | &#45;</text>
</g>
<!-- 2 -->
<g id="node3" class="node">
<title>2</title>
<ellipse fill="none" stroke="#000000" cx="194.7558" cy="-252.2836" rx="30.5947" ry="18"/>
<text text-anchor="middle" x="194.7558" y="-248.5836" font-family="Times,serif" font-size="14.00" fill="#000000">C | C</text>
</g>
<!-- 1&#45;&#45;2 -->
<g id="edge3" class="edge">
<title>1&#45;&#45;2</title>
<path fill="none" stroke="#000000" d="M169.4274,-262.5101C169.5263,-262.4701 169.6252,-262.4302 169.7242,-262.3902"/>
<text text-anchor="middle" x="181.5758" y="-266.2501" font-family="Times,serif" font-size="14.00" fill="#000000">= | &#45;</text>
</g>
<!-- 3 -->
<g id="node4" class="node">
<title>3</title>
<ellipse fill="none" stroke="#000000" cx="278.3502" cy="-229.7051" rx="30.5947" ry="18"/>
<text text-anchor="middle" x="278.3502" y="-226.0051" font-family="Times,serif" font-size="14.00" fill="#000000">C | C</text>
</g>
<!-- 2&#45;&#45;3 -->
<g id="edge4" class="edge">
<title>2&#45;&#45;3</title>
<path fill="none" stroke="#000000" d="M222.5915,-244.7653C231.5206,-242.3536 241.4102,-239.6824 250.351,-237.2675"/>
<text text-anchor="middle" x="236.4712" y="-229.8164" font-family="Times,serif" font-size="14.00" fill="#000000">&#45; | &#45;</text>
</g>
<!-- 9 -->
<g id="node10" class="node">
<title>9</title>
<ellipse fill="none" stroke="#000000" cx="208.8572" cy="-335.3506" rx="30.5947" ry="18"/>
<text text-anchor="middle" x="208.8572" y="-331.6506" font-family="Times,serif" font-size="14.00" fill="#000000">C | C</text>
</g>
<!-- 2&#45;&#45;9 -->
<g id="edge5" class="edge">
<title>2&#45;&#45;9</title>
<path fill="none" stroke="#000000" d="M197.8156,-270.3079C200.1809,-284.241 203.4396,-303.4372 205.8034,-317.3614"/>
<text text-anchor="middle" x="191.8095" y="-297.6347" font-family="Times,serif" font-size="14.00" fill="#000000">&#45; | &#45;</text>
</g>
<!-- 10 -->
<g id="node11" class="node">
<title>10</title>
<ellipse fill="none" stroke="#000000" cx="116.6365" cy="-185.1737" rx="31.3957" ry="18"/>
<text text-anchor="middle" x="116.6365" y="-181.4737" font-family="Times,serif" font-size="14.00" fill="#000000">O | O</text>
</g>
<!-- 2&#45;&#45;10 -->
<g id="edge6" class="edge">
<title>2&#45;&#45;10</title>
<path fill="none" stroke="#000000" stroke-dasharray="1,5" d="M177.4186,-237.3898C164.5628,-226.3457 147.1037,-211.3471 134.1954,-200.258"/>
<text text-anchor="middle" x="153.307" y="-222.6239" font-family="Times,serif" font-size="14.00" fill="#000000">&#45;</text>
</g>
<!-- 4 -->
<g id="node5" class="node">
<title>4</title>
<ellipse fill="none" stroke="#000000" cx="292.45" cy="-147.3462" rx="30.5947" ry="18"/>
<text text-anchor="middle" x="292.45" y="-143.6462" font-family="Times,serif" font-size="14.00" fill="#000000">C | C</text>
</g>
<!-- 3&#45;&#45;4 -->
<g id="edge7" class="edge">
<title>3&#45;&#45;4</title>
<path fill="none" stroke="#000000" d="M281.4794,-211.427C283.8322,-197.6839 287.0392,-178.951 289.378,-165.2898"/>
<text text-anchor="middle" x="275.4287" y="-192.1584" font-family="Times,serif" font-size="14.00" fill="#000000">&#45; | &#45;</text>
</g>
<!-- 4&#45;&#45;5 -->
<g id="edge8" class="edge">
<title>4&#45;&#45;5</title>
<path fill="none" stroke="#000000" d="M267.4005,-136.7445C259.2797,-133.3075 250.2761,-129.4969 242.1632,-126.0633"/>
<text text-anchor="middle" x="259.7819" y="-120.2039" font-family="Times,serif" font-size="14.00" fill="#000000">&#45; | &#45;</text>
</g>
<!-- 6 -->
<g id="node7" class="node">
<title>6</title>
<ellipse fill="none" stroke="#000000" cx="137.4545" cy="-98.2454" rx="30.5947" ry="18"/>
<text text-anchor="middle" x="137.4545" y="-94.5454" font-family="Times,serif" font-size="14.00" fill="#000000">C | C</text>
</g>
<!-- 5&#45;&#45;6 -->
<g id="edge9" class="edge">
<title>5&#45;&#45;6</title>
<path fill="none" stroke="#000000" d="M188.4249,-109.2757C181.1954,-107.7112 173.438,-106.0325 166.2106,-104.4684"/>
<text text-anchor="middle" x="177.3177" y="-95.6721" font-family="Times,serif" font-size="14.00" fill="#000000">&#45; | &#45;</text>
</g>
<!-- 7 -->
<g id="node8" class="node">
<title>7</title>
<ellipse fill="none" stroke="#000000" cx="155.9704" cy="-18" rx="30.5947" ry="18"/>
<text text-anchor="middle" x="155.9704" y="-14.3" font-family="Times,serif" font-size="14.00" fill="#000000">C | C</text>
</g>
<!-- 6&#45;&#45;7 -->
<g id="edge10" class="edge">
<title>6&#45;&#45;7</title>
<path fill="none" stroke="#000000" d="M141.6561,-80.0365C144.7076,-66.8113 148.8165,-49.0041 151.8493,-35.8604"/>
<text text-anchor="middle" x="136.7527" y="-61.7485" font-family="Times,serif" font-size="14.00" fill="#000000">&#45; | &#45;</text>
</g>
<!-- 8 -->
<g id="node9" class="node">
<title>8</title>
<ellipse fill="none" stroke="#000000" cx="69.7695" cy="-54.9254" rx="30.5947" ry="18"/>
<text text-anchor="middle" x="69.7695" y="-51.2254" font-family="Times,serif" font-size="14.00" fill="#000000">C | C</text>
</g>
<!-- 6&#45;&#45;8 -->
<g id="edge11" class="edge">
<title>6&#45;&#45;8</title>
<path fill="none" stroke="#000000" d="M116.4096,-84.7761C108.1826,-79.5106 98.7722,-73.4878 90.569,-68.2375"/>
<text text-anchor="middle" x="93.4893" y="-80.3068" font-family="Times,serif" font-size="14.00" fill="#000000">&#45; | &#45;</text>
</g>
<!-- 6&#45;&#45;10 -->
<g id="edge12" class="edge">
<title>6&#45;&#45;10</title>
<path fill="none" stroke="#000000" d="M133.141,-116.257C129.5681,-131.176 124.5158,-152.2725 120.9445,-167.1851"/>
<text text-anchor="middle" x="117.0428" y="-145.5211" font-family="Times,serif" font-size="14.00" fill="#000000">&#45; | &#45;</text>
</g>
<!-- 11 -->
<g id="node12" class="node">
<title>11</title>
<ellipse fill="none" stroke="#000000" cx="35.7468" cy="-207.278" rx="35.9954" ry="18"/>
<text text-anchor="middle" x="35.7468" y="-203.578" font-family="Times,serif" font-size="14.00" fill="#000000">H | H+</text>
</g>
<!-- 10&#45;&#45;11 -->
<g id="edge13" class="edge">
<title>10&#45;&#45;11</title>
<path fill="none" stroke="#000000" stroke-dasharray="5,2" d="M88.3452,-192.9047C81.5114,-194.7721 74.1672,-196.779 67.1982,-198.6834"/>
<text text-anchor="middle" x="75.2717" y="-199.5941" font-family="Times,serif" font-size="14.00" fill="#000000">&#45;</text>
</g>
</g>
</svg>
