<?xml version="1.0" encoding="UTF-8" standalone="no"?>
<!DOCTYPE svg PUBLIC "-//W3C//DTD SVG 1.1//EN"
 "http://www.w3.org/Graphics/SVG/1.1/DTD/svg11.dtd">
<!-- Generated by graphviz version 2.40.1 (0)
 -->
<!-- Title: G Pages: 1 -->
<svg width="361pt" height="328pt"
 viewBox="0.00 0.00 361.11 327.65" xmlns="http://www.w3.org/2000/svg" xmlns:xlink="http://www.w3.org/1999/xlink">
<g id="graph0" class="graph" transform="scale(1 1) rotate(0) translate(.72 326.9315)">
<title>G</title>
<!-- 0 -->
<g id="node1" class="node">
<title>0</title>
<ellipse fill="none" stroke="#000000" cx="110.2457" cy="-208.5257" rx="30.5947" ry="18"/>
<text text-anchor="middle" x="110.2457" y="-204.8257" font-family="Times,serif" font-size="14.00" fill="#000000">C | C</text>
</g>
<!-- 1 -->
<g id="node2" class="node">
<title>1</title>
<ellipse fill="none" stroke="#000000" cx="201.8813" cy="-193.2443" rx="30.5947" ry="18"/>
<text text-anchor="middle" x="201.8813" y="-189.5443" font-family="Times,serif" font-size="14.00" fill="#000000">C | C</text>
</g>
<!-- 0&#45;&#45;1 -->
<g id="edge1" class="edge">
<title>0&#45;&#45;1</title>
<path fill="none" stroke="#000000" d="M139.7442,-203.6064C150.2082,-201.8614 161.9786,-199.8986 172.4381,-198.1543"/>
<text text-anchor="middle" x="161.0911" y="-189.6804" font-family="Times,serif" font-size="14.00" fill="#000000">&#45; | &#45;</text>
</g>
<!-- 5 -->
<g id="node6" class="node">
<title>5</title>
<ellipse fill="none" stroke="#000000" cx="141.326" cy="-164.5856" rx="35.9954" ry="18"/>
<text text-anchor="middle" x="141.326" y="-160.8856" font-family="Times,serif" font-size="14.00" fill="#000000">C+ | C</text>
</g>
<!-- 0&#45;&#45;5 -->
<g id="edge2" class="edge">
<title>0&#45;&#45;5</title>
<path fill="none" stroke="#000000" d="M122.1732,-191.663C124.5014,-188.3715 126.9441,-184.9182 129.2761,-181.6212"/>
<text text-anchor="middle" x="135.7247" y="-190.4421" font-family="Times,serif" font-size="14.00" fill="#000000">&#45; | &#45;</text>
</g>
<!-- 2 -->
<g id="node3" class="node">
<title>2</title>
<ellipse fill="none" stroke="#000000" cx="253.9342" cy="-252.9838" rx="35.9954" ry="18"/>
<text text-anchor="middle" x="253.9342" y="-249.2838" font-family="Times,serif" font-size="14.00" fill="#000000">C | C+</text>
</g>
<!-- 1&#45;&#45;2 -->
<g id="edge3" class="edge">
<title>1&#45;&#45;2</title>
<path fill="none" stroke="#000000" d="M216.105,-209.5684C223.3293,-217.8595 232.0929,-227.9173 239.3654,-236.2636"/>
<text text-anchor="middle" x="239.7352" y="-211.716" font-family="Times,serif" font-size="14.00" fill="#000000">= | &#45;</text>
</g>
<!-- 1&#45;&#45;5 -->
<g id="edge4" class="edge">
<title>1&#45;&#45;5</title>
<path fill="none" stroke="#000000" stroke-dasharray="1,5" d="M177.9482,-181.9177C174.5101,-180.2905 170.9576,-178.6093 167.4792,-176.9631"/>
<text text-anchor="middle" x="170.2137" y="-168.2404" font-family="Times,serif" font-size="14.00" fill="#000000">&#45;</text>
</g>
<!-- 3 -->
<g id="node4" class="node">
<title>3</title>
<ellipse fill="none" stroke="#000000" cx="198.5149" cy="-308.2115" rx="30.5947" ry="18"/>
<text text-anchor="middle" x="198.5149" y="-304.5115" font-family="Times,serif" font-size="14.00" fill="#000000">C | C</text>
</g>
<!-- 2&#45;&#45;3 -->
<g id="edge5" class="edge">
<title>2&#45;&#45;3</title>
<path fill="none" stroke="#000000" d="M237.6063,-269.2552C230.1989,-276.637 221.4782,-285.3276 214.1551,-292.6253"/>
<text text-anchor="middle" x="235.8807" y="-284.7403" font-family="Times,serif" font-size="14.00" fill="#000000">&#45; | &#45;</text>
</g>
<!-- 9 -->
<g id="node10" class="node">
<title>9</title>
<ellipse fill="none" stroke="#000000" cx="329.1251" cy="-265.3008" rx="30.5947" ry="18"/>
<text text-anchor="middle" x="329.1251" y="-261.6008" font-family="Times,serif" font-size="14.00" fill="#000000">C | C</text>
</g>
<!-- 2&#45;&#45;9 -->
<g id="edge6" class="edge">
<title>2&#45;&#45;9</title>
<path fill="none" stroke="#000000" d="M288.0097,-258.5657C291.8953,-259.2022 295.8316,-259.847 299.6504,-260.4726"/>
<text text-anchor="middle" x="293.8301" y="-248.3191" font-family="Times,serif" font-size="14.00" fill="#000000">&#45; | &#45;</text>
</g>
<!-- 4 -->
<g id="node5" class="node">
<title>4</title>
<ellipse fill="none" stroke="#000000" cx="133.8417" cy="-260.2584" rx="30.5947" ry="18"/>
<text text-anchor="middle" x="133.8417" y="-256.5584" font-family="Times,serif" font-size="14.00" fill="#000000">C | C</text>
</g>
<!-- 3&#45;&#45;4 -->
<g id="edge7" class="edge">
<title>3&#45;&#45;4</title>
<path fill="none" stroke="#000000" d="M179.4606,-294.0834C171.1144,-287.8949 161.3394,-280.6471 152.9833,-274.4513"/>
<text text-anchor="middle" x="156.2219" y="-288.0673" font-family="Times,serif" font-size="14.00" fill="#000000">&#45; | &#45;</text>
</g>
<!-- 4&#45;&#45;5 -->
<g id="edge8" class="edge">
<title>4&#45;&#45;5</title>
<path fill="none" stroke="#000000" d="M135.2494,-242.2631C136.579,-225.2666 138.5633,-199.9018 139.8991,-182.8256"/>
<text text-anchor="middle" x="147.5743" y="-216.3443" font-family="Times,serif" font-size="14.00" fill="#000000">&#45; | &#45;</text>
</g>
<!-- 6 -->
<g id="node7" class="node">
<title>6</title>
<ellipse fill="none" stroke="#000000" cx="107.4229" cy="-91.0005" rx="30.5947" ry="18"/>
<text text-anchor="middle" x="107.4229" y="-87.3005" font-family="Times,serif" font-size="14.00" fill="#000000">C | C</text>
</g>
<!-- 5&#45;&#45;6 -->
<g id="edge9" class="edge">
<title>5&#45;&#45;6</title>
<path fill="none" stroke="#000000" d="M133.119,-146.7727C127.7494,-135.1183 120.7678,-119.965 115.4373,-108.3955"/>
<text text-anchor="middle" x="114.2782" y="-131.3841" font-family="Times,serif" font-size="14.00" fill="#000000">&#45; | &#45;</text>
</g>
<!-- 7 -->
<g id="node8" class="node">
<title>7</title>
<ellipse fill="none" stroke="#000000" cx="139.5115" cy="-18" rx="30.5947" ry="18"/>
<text text-anchor="middle" x="139.5115" y="-14.3" font-family="Times,serif" font-size="14.00" fill="#000000">C | C</text>
</g>
<!-- 6&#45;&#45;7 -->
<g id="edge10" class="edge">
<title>6&#45;&#45;7</title>
<path fill="none" stroke="#000000" d="M115.1907,-73.3291C120.2358,-61.8516 126.7845,-46.9536 131.8153,-35.5087"/>
<text text-anchor="middle" x="113.503" y="-58.2189" font-family="Times,serif" font-size="14.00" fill="#000000">&#45; | &#45;</text>
</g>
<!-- 8 -->
<g id="node9" class="node">
<title>8</title>
<ellipse fill="none" stroke="#000000" cx="30.5473" cy="-68.2739" rx="30.5947" ry="18"/>
<text text-anchor="middle" x="30.5473" y="-64.5739" font-family="Times,serif" font-size="14.00" fill="#000000">C | C</text>
</g>
<!-- 6&#45;&#45;8 -->
<g id="edge11" class="edge">
<title>6&#45;&#45;8</title>
<path fill="none" stroke="#000000" d="M80.103,-82.924C72.939,-80.8061 65.2112,-78.5215 58.0383,-76.401"/>
<text text-anchor="middle" x="74.0706" y="-68.4625" font-family="Times,serif" font-size="14.00" fill="#000000">&#45; | &#45;</text>
</g>
</g>
</svg>
