<?xml version="1.0" encoding="UTF-8" standalone="no"?>
<!DOCTYPE svg PUBLIC "-//W3C//DTD SVG 1.1//EN"
 "http://www.w3.org/Graphics/SVG/1.1/DTD/svg11.dtd">
<!-- Generated by graphviz version 2.40.1 (0)
 -->
<!-- Title: G Pages: 1 -->
<svg width="370pt" height="311pt"
 viewBox="0.00 0.00 370.27 311.33" xmlns="http://www.w3.org/2000/svg" xmlns:xlink="http://www.w3.org/1999/xlink">
<g id="graph0" class="graph" transform="scale(1 1) rotate(0) translate(.72 310.6133)">
<title>G</title>
<!-- 0 -->
<g id="node1" class="node">
<title>0</title>
<ellipse fill="none" stroke="#000000" cx="132.4551" cy="-245.9962" rx="30.5947" ry="18"/>
<text text-anchor="middle" x="132.4551" y="-242.2962" font-family="Times,serif" font-size="14.00" fill="#000000">C | C</text>
</g>
<!-- 1 -->
<g id="node2" class="node">
<title>1</title>
<ellipse fill="none" stroke="#000000" cx="199.2892" cy="-291.8933" rx="30.5947" ry="18"/>
<text text-anchor="middle" x="199.2892" y="-288.1933" font-family="Times,serif" font-size="14.00" fill="#000000">C | C</text>
</g>
<!-- 0&#45;&#45;1 -->
<g id="edge1" class="edge">
<title>0&#45;&#45;1</title>
<path fill="none" stroke="#000000" d="M152.5076,-259.7668C160.9666,-265.5759 170.7935,-272.3244 179.2509,-278.1324"/>
<text text-anchor="middle" x="155.8793" y="-272.7496" font-family="Times,serif" font-size="14.00" fill="#000000">&#45; | &#45;</text>
</g>
<!-- 5 -->
<g id="node6" class="node">
<title>5</title>
<ellipse fill="none" stroke="#000000" cx="129.5275" cy="-165.2154" rx="30.5947" ry="18"/>
<text text-anchor="middle" x="129.5275" y="-161.5154" font-family="Times,serif" font-size="14.00" fill="#000000">C | C</text>
</g>
<!-- 0&#45;&#45;5 -->
<g id="edge2" class="edge">
<title>0&#45;&#45;5</title>
<path fill="none" stroke="#000000" d="M131.7908,-227.6658C131.3117,-214.4455 130.6677,-196.6769 130.1892,-183.4733"/>
<text text-anchor="middle" x="120.99" y="-209.3695" font-family="Times,serif" font-size="14.00" fill="#000000">&#45; | &#45;</text>
</g>
<!-- 2 -->
<g id="node3" class="node">
<title>2</title>
<ellipse fill="none" stroke="#000000" cx="269.3807" cy="-249.2733" rx="30.5947" ry="18"/>
<text text-anchor="middle" x="269.3807" y="-245.5733" font-family="Times,serif" font-size="14.00" fill="#000000">C | C</text>
</g>
<!-- 1&#45;&#45;2 -->
<g id="edge3" class="edge">
<title>1&#45;&#45;2</title>
<path fill="none" stroke="#000000" d="M220.6998,-278.8743C229.3958,-273.5867 239.4187,-267.4921 248.1012,-262.2126"/>
<text text-anchor="middle" x="220.4005" y="-259.3435" font-family="Times,serif" font-size="14.00" fill="#000000">= | =</text>
</g>
<!-- 3 -->
<g id="node4" class="node">
<title>3</title>
<ellipse fill="none" stroke="#000000" cx="254.91" cy="-168.4776" rx="30.5947" ry="18"/>
<text text-anchor="middle" x="254.91" y="-164.7776" font-family="Times,serif" font-size="14.00" fill="#000000">C | C</text>
</g>
<!-- 2&#45;&#45;3 -->
<g id="edge4" class="edge">
<title>2&#45;&#45;3</title>
<path fill="none" stroke="#000000" d="M266.1692,-231.3421C263.7878,-218.0459 260.5537,-199.9886 258.1626,-186.6381"/>
<text text-anchor="middle" x="252.1659" y="-212.7901" font-family="Times,serif" font-size="14.00" fill="#000000">&#45; | &#45;</text>
</g>
<!-- 9 -->
<g id="node10" class="node">
<title>9</title>
<ellipse fill="none" stroke="#000000" cx="338.2875" cy="-284.4556" rx="30.5947" ry="18"/>
<text text-anchor="middle" x="338.2875" y="-280.7556" font-family="Times,serif" font-size="14.00" fill="#000000">C | C</text>
</g>
<!-- 2&#45;&#45;9 -->
<g id="edge5" class="edge">
<title>2&#45;&#45;9</title>
<path fill="none" stroke="#000000" d="M292.7094,-261.1845C299.8935,-264.8525 307.8004,-268.8896 314.9829,-272.5568"/>
<text text-anchor="middle" x="313.8462" y="-255.6706" font-family="Times,serif" font-size="14.00" fill="#000000">&#45; | &#45;</text>
</g>
<!-- 4 -->
<g id="node5" class="node">
<title>4</title>
<ellipse fill="none" stroke="#000000" cx="190.347" cy="-116.114" rx="30.5947" ry="18"/>
<text text-anchor="middle" x="190.347" y="-112.414" font-family="Times,serif" font-size="14.00" fill="#000000">C | C</text>
</g>
<!-- 3&#45;&#45;4 -->
<g id="edge6" class="edge">
<title>3&#45;&#45;4</title>
<path fill="none" stroke="#000000" d="M236.9256,-153.8914C228.12,-146.7497 217.5358,-138.1654 208.6835,-130.9858"/>
<text text-anchor="middle" x="212.8046" y="-146.2386" font-family="Times,serif" font-size="14.00" fill="#000000">&#45; | &#45;</text>
</g>
<!-- 4&#45;&#45;5 -->
<g id="edge7" class="edge">
<title>4&#45;&#45;5</title>
<path fill="none" stroke="#000000" d="M172.0991,-130.846C164.4014,-137.0607 155.4588,-144.2803 147.7625,-150.4938"/>
<text text-anchor="middle" x="149.9308" y="-129.4699" font-family="Times,serif" font-size="14.00" fill="#000000">&#45; | &#45;</text>
</g>
<!-- 6 -->
<g id="node7" class="node">
<title>6</title>
<ellipse fill="none" stroke="#000000" cx="111.9204" cy="-95.8115" rx="35.9954" ry="18"/>
<text text-anchor="middle" x="111.9204" y="-92.1115" font-family="Times,serif" font-size="14.00" fill="#000000">C+ | C</text>
</g>
<!-- 4&#45;&#45;6 -->
<g id="edge8" class="edge">
<title>4&#45;&#45;6</title>
<path fill="none" stroke="#000000" stroke-dasharray="1,5" d="M162.0332,-108.7843C156.1538,-107.2623 149.9194,-105.6484 143.9184,-104.0949"/>
<text text-anchor="middle" x="150.4758" y="-110.2396" font-family="Times,serif" font-size="14.00" fill="#000000">&#45;</text>
</g>
<!-- 10 -->
<g id="node11" class="node">
<title>10</title>
<ellipse fill="none" stroke="#000000" cx="238.5128" cy="-50.0111" rx="35.9954" ry="18"/>
<text text-anchor="middle" x="238.5128" y="-46.3111" font-family="Times,serif" font-size="14.00" fill="#000000">H | H+</text>
</g>
<!-- 4&#45;&#45;10 -->
<g id="edge9" class="edge">
<title>4&#45;&#45;10</title>
<path fill="none" stroke="#000000" stroke-dasharray="5,2" d="M202.5013,-99.4334C209.7471,-89.4892 218.9203,-76.8999 226.1949,-66.9163"/>
<text text-anchor="middle" x="211.8481" y="-86.9749" font-family="Times,serif" font-size="14.00" fill="#000000">&#45;</text>
</g>
<!-- 5&#45;&#45;6 -->
<g id="edge10" class="edge">
<title>5&#45;&#45;6</title>
<path fill="none" stroke="#000000" d="M124.9932,-147.3422C122.3848,-137.0602 119.1166,-124.1775 116.5005,-113.8654"/>
<text text-anchor="middle" x="110.7469" y="-134.4038" font-family="Times,serif" font-size="14.00" fill="#000000">&#45; | &#45;</text>
</g>
<!-- 7 -->
<g id="node8" class="node">
<title>7</title>
<ellipse fill="none" stroke="#000000" cx="96.379" cy="-18" rx="30.5947" ry="18"/>
<text text-anchor="middle" x="96.379" y="-14.3" font-family="Times,serif" font-size="14.00" fill="#000000">C | C</text>
</g>
<!-- 6&#45;&#45;7 -->
<g id="edge11" class="edge">
<title>6&#45;&#45;7</title>
<path fill="none" stroke="#000000" d="M108.3158,-77.7644C105.805,-65.1937 102.4704,-48.4984 99.964,-35.9492"/>
<text text-anchor="middle" x="94.1399" y="-60.6568" font-family="Times,serif" font-size="14.00" fill="#000000">&#45; | &#45;</text>
</g>
<!-- 8 -->
<g id="node9" class="node">
<title>8</title>
<ellipse fill="none" stroke="#000000" cx="30.5473" cy="-98.2376" rx="30.5947" ry="18"/>
<text text-anchor="middle" x="30.5473" y="-94.5376" font-family="Times,serif" font-size="14.00" fill="#000000">C | C</text>
</g>
<!-- 6&#45;&#45;8 -->
<g id="edge12" class="edge">
<title>6&#45;&#45;8</title>
<path fill="none" stroke="#000000" d="M75.9921,-96.8827C71.0533,-97.0299 66.0197,-97.18 61.1878,-97.3241"/>
<text text-anchor="middle" x="68.5899" y="-85.9034" font-family="Times,serif" font-size="14.00" fill="#000000">&#45; | &#45;</text>
</g>
</g>
</svg>
