<?xml version="1.0" encoding="UTF-8" standalone="no"?>
<!DOCTYPE svg PUBLIC "-//W3C//DTD SVG 1.1//EN"
 "http://www.w3.org/Graphics/SVG/1.1/DTD/svg11.dtd">
<!-- Generated by graphviz version 2.40.1 (0)
 -->
<!-- Title: G Pages: 1 -->
<svg width="487pt" height="390pt"
 viewBox="0.00 0.00 486.74 389.60" xmlns="http://www.w3.org/2000/svg" xmlns:xlink="http://www.w3.org/1999/xlink">
<g id="graph0" class="graph" transform="scale(1 1) rotate(0) translate(.72 388.8762)">
<title>G</title>
<!-- 0 -->
<g id="node1" class="node">
<title>0</title>
<ellipse fill="none" stroke="#000000" cx="110.5087" cy="-240.5374" rx="30.5947" ry="18"/>
<text text-anchor="middle" x="110.5087" y="-236.8374" font-family="Times,serif" font-size="14.00" fill="#000000">C | C</text>
</g>
<!-- 1 -->
<g id="node2" class="node">
<title>1</title>
<ellipse fill="none" stroke="#000000" cx="70.333" cy="-305.4171" rx="35.9954" ry="18"/>
<text text-anchor="middle" x="70.333" y="-301.7171" font-family="Times,serif" font-size="14.00" fill="#000000">C+ | C</text>
</g>
<!-- 0&#45;&#45;1 -->
<g id="edge1" class="edge">
<title>0&#45;&#45;1</title>
<path fill="none" stroke="#000000" d="M99.953,-257.5838C94.1873,-266.8948 87.0577,-278.4084 81.2382,-287.8062"/>
<text text-anchor="middle" x="80.5956" y="-276.495" font-family="Times,serif" font-size="14.00" fill="#000000">&#45; | &#45;</text>
</g>
<!-- 5 -->
<g id="node6" class="node">
<title>5</title>
<ellipse fill="none" stroke="#000000" cx="150.6405" cy="-169.2287" rx="30.5947" ry="18"/>
<text text-anchor="middle" x="150.6405" y="-165.5287" font-family="Times,serif" font-size="14.00" fill="#000000">C | C</text>
</g>
<!-- 0&#45;&#45;5 -->
<g id="edge2" class="edge">
<title>0&#45;&#45;5</title>
<path fill="none" stroke="#000000" d="M120.2235,-223.2755C126.5332,-212.064 134.7233,-197.5113 141.0152,-186.3315"/>
<text text-anchor="middle" x="120.6193" y="-208.6035" font-family="Times,serif" font-size="14.00" fill="#000000">&#45; | &#45;</text>
</g>
<!-- 10 -->
<g id="node11" class="node">
<title>10</title>
<ellipse fill="none" stroke="#000000" cx="34.4469" cy="-370.1562" rx="34.394" ry="18"/>
<text text-anchor="middle" x="34.4469" y="-366.4562" font-family="Times,serif" font-size="14.00" fill="#000000">O&#45; | O</text>
</g>
<!-- 1&#45;&#45;10 -->
<g id="edge3" class="edge">
<title>1&#45;&#45;10</title>
<path fill="none" stroke="#000000" stroke-dasharray="1,5" d="M60.7162,-322.766C55.5673,-332.0546 49.2432,-343.4636 44.0903,-352.7594"/>
<text text-anchor="middle" x="49.9032" y="-341.5627" font-family="Times,serif" font-size="14.00" fill="#000000">&#45;</text>
</g>
<!-- 2 -->
<g id="node3" class="node">
<title>2</title>
<ellipse fill="none" stroke="#000000" cx="381.7636" cy="-180.9521" rx="30.5947" ry="18"/>
<text text-anchor="middle" x="381.7636" y="-177.2521" font-family="Times,serif" font-size="14.00" fill="#000000">C | C</text>
</g>
<!-- 3 -->
<g id="node4" class="node">
<title>3</title>
<ellipse fill="none" stroke="#000000" cx="307.7826" cy="-178.2854" rx="30.5947" ry="18"/>
<text text-anchor="middle" x="307.7826" y="-174.5854" font-family="Times,serif" font-size="14.00" fill="#000000">C | C</text>
</g>
<!-- 2&#45;&#45;3 -->
<g id="edge4" class="edge">
<title>2&#45;&#45;3</title>
<path fill="none" stroke="#000000" d="M351.2456,-179.852C347.1061,-179.7028 342.855,-179.5496 338.7085,-179.4001"/>
<text text-anchor="middle" x="344.977" y="-168.4261" font-family="Times,serif" font-size="14.00" fill="#000000">&#45; | &#45;</text>
</g>
<!-- 9 -->
<g id="node10" class="node">
<title>9</title>
<ellipse fill="none" stroke="#000000" cx="454.7573" cy="-178.1217" rx="30.5947" ry="18"/>
<text text-anchor="middle" x="454.7573" y="-174.4217" font-family="Times,serif" font-size="14.00" fill="#000000">C | C</text>
</g>
<!-- 2&#45;&#45;9 -->
<g id="edge5" class="edge">
<title>2&#45;&#45;9</title>
<path fill="none" stroke="#000000" d="M412.2966,-179.7681C416.2033,-179.6167 420.2036,-179.4615 424.1121,-179.31"/>
<text text-anchor="middle" x="418.2043" y="-168.3391" font-family="Times,serif" font-size="14.00" fill="#000000">&#45; | &#45;</text>
</g>
<!-- 4 -->
<g id="node5" class="node">
<title>4</title>
<ellipse fill="none" stroke="#000000" cx="231.8495" cy="-173.9591" rx="30.5947" ry="18"/>
<text text-anchor="middle" x="231.8495" y="-170.2591" font-family="Times,serif" font-size="14.00" fill="#000000">C | C</text>
</g>
<!-- 3&#45;&#45;4 -->
<g id="edge6" class="edge">
<title>3&#45;&#45;4</title>
<path fill="none" stroke="#000000" d="M277.3352,-176.5506C272.384,-176.2685 267.2551,-175.9763 262.3037,-175.6942"/>
<text text-anchor="middle" x="269.8195" y="-164.9224" font-family="Times,serif" font-size="14.00" fill="#000000">&#45; | &#45;</text>
</g>
<!-- 4&#45;&#45;5 -->
<g id="edge7" class="edge">
<title>4&#45;&#45;5</title>
<path fill="none" stroke="#000000" d="M201.1479,-172.1707C194.5901,-171.7887 187.6654,-171.3854 181.1162,-171.0039"/>
<text text-anchor="middle" x="191.132" y="-160.3873" font-family="Times,serif" font-size="14.00" fill="#000000">&#45; | &#45;</text>
</g>
<!-- 6 -->
<g id="node7" class="node">
<title>6</title>
<ellipse fill="none" stroke="#000000" cx="109.0248" cy="-96.3774" rx="30.5947" ry="18"/>
<text text-anchor="middle" x="109.0248" y="-92.6774" font-family="Times,serif" font-size="14.00" fill="#000000">C | C</text>
</g>
<!-- 5&#45;&#45;6 -->
<g id="edge8" class="edge">
<title>5&#45;&#45;6</title>
<path fill="none" stroke="#000000" d="M140.7782,-151.9639C134.1443,-140.3508 125.4354,-125.1053 118.8164,-113.5182"/>
<text text-anchor="middle" x="119.7973" y="-136.541" font-family="Times,serif" font-size="14.00" fill="#000000">&#45; | &#45;</text>
</g>
<!-- 7 -->
<g id="node8" class="node">
<title>7</title>
<ellipse fill="none" stroke="#000000" cx="123.3052" cy="-18" rx="30.5947" ry="18"/>
<text text-anchor="middle" x="123.3052" y="-14.3" font-family="Times,serif" font-size="14.00" fill="#000000">C | C</text>
</g>
<!-- 6&#45;&#45;7 -->
<g id="edge9" class="edge">
<title>6&#45;&#45;7</title>
<path fill="none" stroke="#000000" d="M112.3369,-78.199C114.6439,-65.537 117.708,-48.7202 120.0111,-36.0798"/>
<text text-anchor="middle" x="106.174" y="-60.9394" font-family="Times,serif" font-size="14.00" fill="#000000">&#45; | &#45;</text>
</g>
<!-- 8 -->
<g id="node9" class="node">
<title>8</title>
<ellipse fill="none" stroke="#000000" cx="32.9306" cy="-73.0755" rx="30.5947" ry="18"/>
<text text-anchor="middle" x="32.9306" y="-69.3755" font-family="Times,serif" font-size="14.00" fill="#000000">C | C</text>
</g>
<!-- 6&#45;&#45;8 -->
<g id="edge10" class="edge">
<title>6&#45;&#45;8</title>
<path fill="none" stroke="#000000" d="M81.5531,-87.9648C74.5714,-85.8269 67.0738,-83.5309 60.1069,-81.3975"/>
<text text-anchor="middle" x="75.83" y="-73.4812" font-family="Times,serif" font-size="14.00" fill="#000000">&#45; | &#45;</text>
</g>
</g>
</svg>
