<?xml version="1.0" encoding="UTF-8"?>
<svg xmlns="http://www.w3.org/2000/svg" xmlns:xlink="http://www.w3.org/1999/xlink" width="182.9pt" height="195.53pt" viewBox="0 0 182.9 195.53">
<defs>
<g>
<g id="glyph-0-0">
<path d="M 7.796875 -8.140625 C 7.796875 -8.359375 7.796875 -8.421875 7.671875 -8.421875 C 7.609375 -8.421875 7.59375 -8.390625 7.515625 -8.265625 L 6.9375 -7.328125 C 6.390625 -8 5.578125 -8.421875 4.71875 -8.421875 C 2.53125 -8.421875 0.640625 -6.53125 0.640625 -4.09375 C 0.640625 -1.609375 2.5625 0.25 4.71875 0.25 C 6.6875 0.25 7.796875 -1.453125 7.796875 -2.765625 C 7.796875 -2.90625 7.796875 -2.96875 7.65625 -2.96875 C 7.546875 -2.96875 7.53125 -2.921875 7.53125 -2.828125 C 7.421875 -0.9375 6.03125 -0.09375 4.875 -0.09375 C 4.046875 -0.09375 1.75 -0.59375 1.75 -4.09375 C 1.75 -7.546875 4 -8.0625 4.859375 -8.0625 C 6.125 -8.0625 7.21875 -7 7.453125 -5.21875 C 7.484375 -5.0625 7.484375 -5.03125 7.625 -5.03125 C 7.796875 -5.03125 7.796875 -5.0625 7.796875 -5.3125 Z M 7.796875 -8.140625 "/>
</g>
<g id="glyph-0-1">
<path d="M 7.140625 -7.25 C 7.140625 -7.703125 7.171875 -7.8125 8.03125 -7.8125 L 8.265625 -7.8125 L 8.265625 -8.15625 C 7.984375 -8.140625 7 -8.140625 6.65625 -8.140625 C 6.296875 -8.140625 5.3125 -8.140625 5.03125 -8.15625 L 5.03125 -7.8125 L 5.265625 -7.8125 C 6.125 -7.8125 6.171875 -7.703125 6.171875 -7.25 L 6.171875 -4.421875 L 2.59375 -4.421875 L 2.59375 -7.25 C 2.59375 -7.703125 2.625 -7.8125 3.484375 -7.8125 L 3.734375 -7.8125 L 3.734375 -8.15625 C 3.4375 -8.140625 2.46875 -8.140625 2.109375 -8.140625 C 1.75 -8.140625 0.78125 -8.140625 0.484375 -8.15625 L 0.484375 -7.8125 L 0.734375 -7.8125 C 1.59375 -7.8125 1.625 -7.703125 1.625 -7.25 L 1.625 -0.90625 C 1.625 -0.46875 1.59375 -0.34375 0.734375 -0.34375 L 0.484375 -0.34375 L 0.484375 0 C 0.78125 -0.03125 1.75 -0.03125 2.109375 -0.03125 C 2.46875 -0.03125 3.4375 -0.03125 3.734375 0 L 3.734375 -0.34375 L 3.484375 -0.34375 C 2.625 -0.34375 2.59375 -0.46875 2.59375 -0.90625 L 2.59375 -4.078125 L 6.171875 -4.078125 L 6.171875 -0.90625 C 6.171875 -0.46875 6.125 -0.34375 5.265625 -0.34375 L 5.03125 -0.34375 L 5.03125 0 C 5.3125 -0.03125 6.296875 -0.03125 6.640625 -0.03125 C 7 -0.03125 7.984375 -0.03125 8.265625 0 L 8.265625 -0.34375 L 8.03125 -0.34375 C 7.171875 -0.34375 7.140625 -0.46875 7.140625 -0.90625 Z M 7.140625 -7.25 "/>
</g>
<g id="glyph-0-2">
<path d="M 8.453125 -4.046875 C 8.453125 -6.53125 6.640625 -8.421875 4.546875 -8.421875 C 2.421875 -8.421875 0.640625 -6.5 0.640625 -4.046875 C 0.640625 -1.625 2.453125 0.25 4.546875 0.25 C 6.6875 0.25 8.453125 -1.65625 8.453125 -4.046875 Z M 4.546875 -0.03125 C 3.328125 -0.03125 1.75 -1.171875 1.75 -4.234375 C 1.75 -7.15625 3.421875 -8.15625 4.546875 -8.15625 C 5.71875 -8.15625 7.34375 -7.125 7.34375 -4.234375 C 7.34375 -1.125 5.71875 -0.03125 4.546875 -0.03125 Z M 4.546875 -0.03125 "/>
</g>
<g id="glyph-1-0">
<path d="M 3.28125 -5.109375 C 3.296875 -5.265625 3.296875 -5.5625 2.984375 -5.5625 C 2.796875 -5.5625 2.640625 -5.40625 2.671875 -5.25 L 2.671875 -5.09375 L 2.84375 -3.234375 L 1.3125 -4.34375 C 1.203125 -4.40625 1.1875 -4.4375 1.09375 -4.4375 C 0.9375 -4.4375 0.78125 -4.265625 0.78125 -4.09375 C 0.78125 -3.90625 0.890625 -3.859375 1.015625 -3.796875 L 2.71875 -2.984375 L 1.0625 -2.1875 C 0.875 -2.09375 0.78125 -2.046875 0.78125 -1.859375 C 0.78125 -1.6875 0.9375 -1.53125 1.09375 -1.53125 C 1.1875 -1.53125 1.203125 -1.53125 1.5 -1.75 L 2.84375 -2.71875 L 2.671875 -0.71875 C 2.671875 -0.46875 2.875 -0.40625 2.96875 -0.40625 C 3.125 -0.40625 3.296875 -0.484375 3.296875 -0.71875 L 3.125 -2.71875 L 4.65625 -1.609375 C 4.75 -1.546875 4.78125 -1.53125 4.859375 -1.53125 C 5.03125 -1.53125 5.1875 -1.703125 5.1875 -1.859375 C 5.1875 -2.046875 5.078125 -2.109375 4.9375 -2.171875 C 4.21875 -2.53125 4.203125 -2.53125 3.25 -2.96875 L 4.90625 -3.78125 C 5.09375 -3.875 5.1875 -3.921875 5.1875 -4.09375 C 5.1875 -4.28125 5.03125 -4.4375 4.859375 -4.4375 C 4.78125 -4.4375 4.75 -4.4375 4.453125 -4.203125 L 3.125 -3.234375 Z M 3.28125 -5.109375 "/>
</g>
</g>
<clipPath id="clip-0">
<path clip-rule="nonzero" d="M 164 186 L 172 186 L 172 195.53125 L 164 195.53125 Z M 164 186 "/>
</clipPath>
</defs>
<g fill="rgb(0%, 0%, 0%)" fill-opacity="1">
<use xlink:href="#glyph-0-0" x="59.428" y="105.702"/>
</g>
<g fill="rgb(0%, 0%, 0%)" fill-opacity="1">
<use xlink:href="#glyph-0-0" x="79.426" y="78.177"/>
</g>
<g fill="rgb(0%, 0%, 0%)" fill-opacity="1">
<use xlink:href="#glyph-0-0" x="111.783" y="67.664"/>
</g>
<g fill="rgb(0%, 0%, 0%)" fill-opacity="1">
<use xlink:href="#glyph-0-0" x="144.14" y="78.177"/>
</g>
<g fill="rgb(0%, 0%, 0%)" fill-opacity="1">
<use xlink:href="#glyph-0-0" x="164.138" y="105.702"/>
</g>
<g fill="rgb(0%, 0%, 0%)" fill-opacity="1">
<use xlink:href="#glyph-0-0" x="164.138" y="139.724"/>
</g>
<g fill="rgb(0%, 0%, 0%)" fill-opacity="1">
<use xlink:href="#glyph-0-0" x="144.14" y="167.249"/>
</g>
<g fill="rgb(0%, 0%, 0%)" fill-opacity="1">
<use xlink:href="#glyph-0-0" x="111.783" y="177.762"/>
</g>
<g fill="rgb(0%, 0%, 0%)" fill-opacity="1">
<use xlink:href="#glyph-0-0" x="79.426" y="167.249"/>
</g>
<g fill="rgb(0%, 0%, 0%)" fill-opacity="1">
<use xlink:href="#glyph-0-0" x="59.428" y="139.724"/>
</g>
<g fill="rgb(0%, 0%, 0%)" fill-opacity="1">
<use xlink:href="#glyph-0-0" x="29.964" y="122.713"/>
</g>
<g fill="rgb(0%, 0%, 0%)" fill-opacity="1">
<use xlink:href="#glyph-0-0" x="0.5" y="105.702"/>
</g>
<g fill="rgb(0%, 0%, 0%)" fill-opacity="1">
<use xlink:href="#glyph-0-0" x="0.5" y="139.724"/>
</g>
<g clip-path="url(#clip-0)">
<g fill="rgb(0%, 0%, 0%)" fill-opacity="1">
<use xlink:href="#glyph-0-0" x="164.138" y="194.773"/>
</g>
</g>
<g fill="rgb(0%, 0%, 0%)" fill-opacity="1">
<use xlink:href="#glyph-0-0" x="128.794" y="38.2"/>
</g>
<g fill="rgb(0%, 0%, 0%)" fill-opacity="1">
<use xlink:href="#glyph-0-1" x="111.622" y="8.736"/>
</g>
<g fill="rgb(0%, 0%, 0%)" fill-opacity="1">
<use xlink:href="#glyph-0-2" x="94.447" y="38.2"/>
</g>
<g fill="rgb(0%, 0%, 0%)" fill-opacity="1">
<use xlink:href="#glyph-0-1" x="60.589" y="38.2"/>
</g>
<path fill="none" stroke-width="0.3985" stroke-linecap="butt" stroke-linejoin="miter" stroke="rgb(0%, 0%, 0%)" stroke-opacity="1" stroke-miterlimit="10" d="M 33.937906 23.1615 L 45.019937 38.4115 " transform="matrix(1, 0, 0, -1, 34.191, 118.724)"/>
<g fill="rgb(0%, 0%, 0%)" fill-opacity="1">
<use xlink:href="#glyph-1-0" x="63.591" y="83.838"/>
</g>
<path fill="none" stroke-width="0.3985" stroke-linecap="butt" stroke-linejoin="miter" stroke="rgb(0%, 0%, 0%)" stroke-opacity="1" stroke-miterlimit="10" d="M 29.476969 10.427125 L 29.476969 -10.428344 " transform="matrix(1, 0, 0, -1, 34.191, 118.724)"/>
<path fill="none" stroke-width="0.3985" stroke-linecap="butt" stroke-linejoin="miter" stroke="rgb(0%, 0%, 0%)" stroke-opacity="1" stroke-miterlimit="10" d="M 23.219156 13.403688 L 6.258219 3.610719 " transform="matrix(1, 0, 0, -1, 34.191, 118.724)"/>
<path fill="none" stroke-width="0.3985" stroke-linecap="butt" stroke-linejoin="miter" stroke="rgb(0%, 0%, 0%)" stroke-opacity="1" stroke-miterlimit="10" d="M 55.937906 46.649781 L 75.394937 52.974 " transform="matrix(1, 0, 0, -1, 34.191, 118.724)"/>
<g fill="rgb(0%, 0%, 0%)" fill-opacity="1">
<use xlink:href="#glyph-1-0" x="89.778" y="64.811"/>
</g>
<path fill="none" stroke-width="0.3985" stroke-linecap="butt" stroke-linejoin="miter" stroke="rgb(0%, 0%, 0%)" stroke-opacity="1" stroke-miterlimit="10" d="M 88.309 52.974 L 107.766031 46.653688 " transform="matrix(1, 0, 0, -1, 34.191, 118.724)"/>
<g fill="rgb(0%, 0%, 0%)" fill-opacity="1">
<use xlink:href="#glyph-1-0" x="136.327" y="64.809"/>
</g>
<path fill="none" stroke-width="0.3985" stroke-linecap="butt" stroke-linejoin="miter" stroke="rgb(0%, 0%, 0%)" stroke-opacity="1" stroke-miterlimit="10" d="M 85.476969 61.345094 L 95.2465 78.270875 " transform="matrix(1, 0, 0, -1, 34.191, 118.724)"/>
<g fill="rgb(0%, 0%, 0%)" fill-opacity="1">
<use xlink:href="#glyph-1-0" x="114.474" y="44.815"/>
</g>
<path fill="none" stroke-width="0.3985" stroke-linecap="butt" stroke-linejoin="miter" stroke="rgb(0%, 0%, 0%)" stroke-opacity="1" stroke-miterlimit="10" d="M 118.691812 38.4115 L 129.769937 23.1615 " transform="matrix(1, 0, 0, -1, 34.191, 118.724)"/>
<g fill="rgb(0%, 0%, 0%)" fill-opacity="1">
<use xlink:href="#glyph-1-0" x="162.52" y="83.838"/>
</g>
<path fill="none" stroke-width="0.3985" stroke-linecap="butt" stroke-linejoin="miter" stroke="rgb(0%, 0%, 0%)" stroke-opacity="1" stroke-miterlimit="10" d="M 134.230875 10.427125 L 134.230875 -10.428344 " transform="matrix(1, 0, 0, -1, 34.191, 118.724)"/>
<g fill="rgb(0%, 0%, 0%)" fill-opacity="1">
<use xlink:href="#glyph-1-0" x="172.521" y="121.505"/>
</g>
<path fill="none" stroke-width="0.3985" stroke-linecap="butt" stroke-linejoin="miter" stroke="rgb(0%, 0%, 0%)" stroke-opacity="1" stroke-miterlimit="10" d="M 131.191812 -24.193969 L 120.109781 -39.443969 " transform="matrix(1, 0, 0, -1, 34.191, 118.724)"/>
<path fill="none" stroke-width="0.3985" stroke-linecap="butt" stroke-linejoin="miter" stroke="rgb(0%, 0%, 0%)" stroke-opacity="1" stroke-miterlimit="10" d="M 128.351969 -22.127562 L 117.266031 -37.377562 " transform="matrix(1, 0, 0, -1, 34.191, 118.724)"/>
<path fill="none" stroke-width="0.3985" stroke-linecap="butt" stroke-linejoin="miter" stroke="rgb(0%, 0%, 0%)" stroke-opacity="1" stroke-miterlimit="10" d="M 107.766031 -46.654906 L 88.309 -52.975219 " transform="matrix(1, 0, 0, -1, 34.191, 118.724)"/>
<g fill="rgb(0%, 0%, 0%)" fill-opacity="1">
<use xlink:href="#glyph-1-0" x="136.327" y="178.201"/>
</g>
<path fill="none" stroke-width="0.3985" stroke-linecap="butt" stroke-linejoin="miter" stroke="rgb(0%, 0%, 0%)" stroke-opacity="1" stroke-miterlimit="10" d="M 118.687906 -50.697875 L 129.766031 -65.943969 " transform="matrix(1, 0, 0, -1, 34.191, 118.724)"/>
<g fill="rgb(0%, 0%, 0%)" fill-opacity="1">
<use xlink:href="#glyph-1-0" x="162.518" y="172.943"/>
</g>
<path fill="none" stroke-width="0.3985" stroke-linecap="butt" stroke-linejoin="miter" stroke="rgb(0%, 0%, 0%)" stroke-opacity="1" stroke-miterlimit="10" d="M 75.394937 -52.975219 L 55.937906 -46.651 " transform="matrix(1, 0, 0, -1, 34.191, 118.724)"/>
<g fill="rgb(0%, 0%, 0%)" fill-opacity="1">
<use xlink:href="#glyph-1-0" x="89.778" y="178.199"/>
</g>
<path fill="none" stroke-width="0.3985" stroke-linecap="butt" stroke-linejoin="miter" stroke="rgb(0%, 0%, 0%)" stroke-opacity="1" stroke-miterlimit="10" d="M 45.019937 -38.408812 L 33.937906 -23.158812 " transform="matrix(1, 0, 0, -1, 34.191, 118.724)"/>
<g fill="rgb(0%, 0%, 0%)" fill-opacity="1">
<use xlink:href="#glyph-1-0" x="63.591" y="159.172"/>
</g>
<path fill="none" stroke-width="0.3985" stroke-linecap="butt" stroke-linejoin="miter" stroke="rgb(0%, 0%, 0%)" stroke-opacity="1" stroke-miterlimit="10" d="M 23.219156 -13.404906 L 6.258219 -3.611937 " transform="matrix(1, 0, 0, -1, 34.191, 118.724)"/>
<g fill="rgb(0%, 0%, 0%)" fill-opacity="1">
<use xlink:href="#glyph-1-0" x="38.85" y="136.896"/>
</g>
<path fill="none" stroke-width="0.3985" stroke-linecap="butt" stroke-linejoin="miter" stroke="rgb(0%, 0%, 0%)" stroke-opacity="1" stroke-miterlimit="10" d="M -6.257406 3.610719 L -23.218344 13.407594 " transform="matrix(1, 0, 0, -1, 34.191, 118.724)"/>
<g fill="rgb(0%, 0%, 0%)" fill-opacity="1">
<use xlink:href="#glyph-1-0" x="9.375" y="119.878"/>
</g>
<path fill="none" stroke-width="0.3985" stroke-linecap="butt" stroke-linejoin="miter" stroke="rgb(0%, 0%, 0%)" stroke-opacity="1" stroke-miterlimit="10" d="M -6.257406 -3.611937 L -23.218344 -13.404906 " transform="matrix(1, 0, 0, -1, 34.191, 118.724)"/>
<g fill="rgb(0%, 0%, 0%)" fill-opacity="1">
<use xlink:href="#glyph-1-0" x="23.554" y="136.896"/>
</g>
<path fill="none" stroke-width="0.3985" stroke-linecap="butt" stroke-linejoin="miter" stroke="rgb(0%, 0%, 0%)" stroke-opacity="1" stroke-miterlimit="10" d="M 57.937906 84.548219 L 37.52775 84.548219 " transform="matrix(1, 0, 0, -1, 34.191, 118.724)"/>
</svg>
