<?xml version="1.0" encoding="UTF-8"?>
<svg xmlns="http://www.w3.org/2000/svg" xmlns:xlink="http://www.w3.org/1999/xlink" width="139.861pt" height="106.224pt" viewBox="0 0 139.861 106.224">
<defs>
<g>
<g id="glyph-0-0">
<path d="M 7.796875 -8.140625 C 7.796875 -8.359375 7.796875 -8.421875 7.671875 -8.421875 C 7.609375 -8.421875 7.59375 -8.390625 7.515625 -8.265625 L 6.9375 -7.328125 C 6.390625 -8 5.578125 -8.421875 4.71875 -8.421875 C 2.53125 -8.421875 0.640625 -6.53125 0.640625 -4.09375 C 0.640625 -1.609375 2.5625 0.25 4.71875 0.25 C 6.6875 0.25 7.796875 -1.453125 7.796875 -2.765625 C 7.796875 -2.90625 7.796875 -2.96875 7.65625 -2.96875 C 7.546875 -2.96875 7.53125 -2.921875 7.53125 -2.828125 C 7.421875 -0.9375 6.03125 -0.09375 4.875 -0.09375 C 4.046875 -0.09375 1.75 -0.59375 1.75 -4.09375 C 1.75 -7.546875 4 -8.0625 4.859375 -8.0625 C 6.125 -8.0625 7.21875 -7 7.453125 -5.21875 C 7.484375 -5.0625 7.484375 -5.03125 7.625 -5.03125 C 7.796875 -5.03125 7.796875 -5.0625 7.796875 -5.3125 Z M 7.796875 -8.140625 "/>
</g>
<g id="glyph-1-0">
<path d="M 3.28125 -5.109375 C 3.296875 -5.265625 3.296875 -5.5625 2.984375 -5.5625 C 2.796875 -5.5625 2.640625 -5.40625 2.671875 -5.25 L 2.671875 -5.09375 L 2.84375 -3.234375 L 1.3125 -4.34375 C 1.203125 -4.40625 1.1875 -4.4375 1.09375 -4.4375 C 0.9375 -4.4375 0.78125 -4.265625 0.78125 -4.09375 C 0.78125 -3.90625 0.890625 -3.859375 1.015625 -3.796875 L 2.71875 -2.984375 L 1.0625 -2.1875 C 0.875 -2.09375 0.78125 -2.046875 0.78125 -1.859375 C 0.78125 -1.6875 0.9375 -1.53125 1.09375 -1.53125 C 1.1875 -1.53125 1.203125 -1.53125 1.5 -1.75 L 2.84375 -2.71875 L 2.671875 -0.71875 C 2.671875 -0.46875 2.875 -0.40625 2.96875 -0.40625 C 3.125 -0.40625 3.296875 -0.484375 3.296875 -0.71875 L 3.125 -2.71875 L 4.65625 -1.609375 C 4.75 -1.546875 4.78125 -1.53125 4.859375 -1.53125 C 5.03125 -1.53125 5.1875 -1.703125 5.1875 -1.859375 C 5.1875 -2.046875 5.078125 -2.109375 4.9375 -2.171875 C 4.21875 -2.53125 4.203125 -2.53125 3.25 -2.96875 L 4.90625 -3.78125 C 5.09375 -3.875 5.1875 -3.921875 5.1875 -4.09375 C 5.1875 -4.28125 5.03125 -4.4375 4.859375 -4.4375 C 4.78125 -4.4375 4.75 -4.4375 4.453125 -4.203125 L 3.125 -3.234375 Z M 3.28125 -5.109375 "/>
</g>
</g>
</defs>
<g fill="rgb(0%, 0%, 0%)" fill-opacity="1">
<use xlink:href="#glyph-0-0" x="64.905" y="101.39"/>
</g>
<g fill="rgb(0%, 0%, 0%)" fill-opacity="1">
<use xlink:href="#glyph-0-0" x="85.817" y="99.192"/>
</g>
<g fill="rgb(0%, 0%, 0%)" fill-opacity="1">
<use xlink:href="#glyph-0-0" x="101.442" y="85.122"/>
</g>
<g fill="rgb(0%, 0%, 0%)" fill-opacity="1">
<use xlink:href="#glyph-0-0" x="105.814" y="64.555"/>
</g>
<g fill="rgb(0%, 0%, 0%)" fill-opacity="1">
<use xlink:href="#glyph-0-0" x="97.262" y="45.346"/>
</g>
<g fill="rgb(58.456421%, 19.412231%, 61.727905%)" fill-opacity="1">
<use xlink:href="#glyph-0-0" x="79.052" y="34.832"/>
</g>
<g fill="rgb(0%, 0%, 0%)" fill-opacity="1">
<use xlink:href="#glyph-0-0" x="58.14" y="37.03"/>
</g>
<g fill="rgb(0%, 0%, 0%)" fill-opacity="1">
<use xlink:href="#glyph-0-0" x="87.605" y="54.041"/>
</g>
<g fill="rgb(0%, 0%, 0%)" fill-opacity="1">
<use xlink:href="#glyph-0-0" x="80.531" y="87.32"/>
</g>
<g fill="rgb(0%, 0%, 0%)" fill-opacity="1">
<use xlink:href="#glyph-0-0" x="46.695" y="90.876"/>
</g>
<g fill="rgb(58.456421%, 19.412231%, 61.727905%)" fill-opacity="1">
<use xlink:href="#glyph-0-0" x="32.857" y="59.795"/>
</g>
<g fill="rgb(0%, 0%, 0%)" fill-opacity="1">
<use xlink:href="#glyph-0-0" x="7.573" y="37.03"/>
</g>
<g fill="rgb(0%, 0%, 0%)" fill-opacity="1">
<use xlink:href="#glyph-0-0" x="0.5" y="70.309"/>
</g>
<g fill="rgb(0%, 0%, 0%)" fill-opacity="1">
<use xlink:href="#glyph-0-0" x="39.247" y="8.736"/>
</g>
<g fill="rgb(0%, 0%, 0%)" fill-opacity="1">
<use xlink:href="#glyph-0-0" x="130.906" y="102.133"/>
</g>
<path fill="none" stroke-width="0.3985" stroke-linecap="butt" stroke-linejoin="miter" stroke="rgb(0%, 0%, 0%)" stroke-opacity="1" stroke-miterlimit="10" d="M 38.619125 -40.924469 L 46.423813 -40.104156 " transform="matrix(1, 0, 0, -1, 37.084, 55.806)"/>
<g fill="rgb(0%, 0%, 0%)" fill-opacity="1">
<use xlink:href="#glyph-1-0" x="69.526" y="92.218"/>
</g>
<path fill="none" stroke-width="0.3985" stroke-linecap="butt" stroke-linejoin="miter" stroke="rgb(0%, 0%, 0%)" stroke-opacity="1" stroke-miterlimit="10" d="M 25.802719 -37.998687 L 20.099594 -34.705719 " transform="matrix(1, 0, 0, -1, 37.084, 55.806)"/>
<g fill="rgb(0%, 0%, 0%)" fill-opacity="1">
<use xlink:href="#glyph-1-0" x="49.957" y="101.822"/>
</g>
<path fill="none" stroke-width="0.3985" stroke-linecap="butt" stroke-linejoin="miter" stroke="rgb(0%, 0%, 0%)" stroke-opacity="1" stroke-miterlimit="10" d="M 57.775375 -32.740875 L 61.470688 -29.408844 " transform="matrix(1, 0, 0, -1, 37.084, 55.806)"/>
<path fill="none" stroke-width="0.3985" stroke-linecap="butt" stroke-linejoin="miter" stroke="rgb(0%, 0%, 0%)" stroke-opacity="1" stroke-miterlimit="10" d="M 60.123031 -35.35025 L 63.818344 -32.022125 " transform="matrix(1, 0, 0, -1, 37.084, 55.806)"/>
<path fill="none" stroke-width="0.3985" stroke-linecap="butt" stroke-linejoin="miter" stroke="rgb(0%, 0%, 0%)" stroke-opacity="1" stroke-miterlimit="10" d="M 70.005844 -18.799469 L 71.599594 -11.299469 " transform="matrix(1, 0, 0, -1, 37.084, 55.806)"/>
<g fill="rgb(0%, 0%, 0%)" fill-opacity="1">
<use xlink:href="#glyph-1-0" x="97.808" y="66.754"/>
</g>
<path fill="none" stroke-width="0.3985" stroke-linecap="butt" stroke-linejoin="miter" stroke="rgb(0%, 0%, 0%)" stroke-opacity="1" stroke-miterlimit="10" d="M 74.869125 -28.947906 L 91.830062 -38.744781 " transform="matrix(1, 0, 0, -1, 37.084, 55.806)"/>
<g fill="rgb(0%, 0%, 0%)" fill-opacity="1">
<use xlink:href="#glyph-1-0" x="124.534" y="85.55"/>
</g>
<path fill="none" stroke-width="0.3985" stroke-linecap="butt" stroke-linejoin="miter" stroke="rgb(0%, 0%, 0%)" stroke-opacity="1" stroke-miterlimit="10" d="M 70.146469 1.626313 L 67.275375 8.067719 " transform="matrix(1, 0, 0, -1, 37.084, 55.806)"/>
<g fill="rgb(0%, 0%, 0%)" fill-opacity="1">
<use xlink:href="#glyph-1-0" x="95.717" y="60.622"/>
</g>
<path fill="none" stroke-width="0.3985" stroke-linecap="butt" stroke-linejoin="miter" stroke="rgb(0%, 0%, 0%)" stroke-opacity="1" stroke-miterlimit="10" d="M 58.173813 18.071625 L 52.470688 21.364594 " transform="matrix(1, 0, 0, -1, 37.084, 55.806)"/>
<g fill="rgb(0%, 0%, 0%)" fill-opacity="1">
<use xlink:href="#glyph-1-0" x="82.327" y="45.753"/>
</g>
<path fill="none" stroke-width="0.3985" stroke-linecap="butt" stroke-linejoin="miter" stroke="rgb(0%, 0%, 0%)" stroke-opacity="1" stroke-miterlimit="10" d="M 31.548813 19.161469 L 48.513656 9.3685 " transform="matrix(1, 0, 0, -1, 37.084, 55.806)"/>
<g fill="rgb(0%, 0%, 0%)" fill-opacity="1">
<use xlink:href="#glyph-1-0" x="81.216" y="37.439"/>
</g>
<path fill="none" stroke-width="0.3985" stroke-linecap="butt" stroke-linejoin="miter" stroke="rgb(0%, 0%, 0%)" stroke-opacity="1" stroke-miterlimit="10" d="M 21.158188 28.970063 L 10.529281 44.884125 " transform="matrix(1, 0, 0, -1, 37.084, 55.806)"/>
<g fill="rgb(0%, 0%, 0%)" fill-opacity="1">
<use xlink:href="#glyph-1-0" x="42.849" y="28.543"/>
</g>
<path fill="none" stroke-width="0.3985" stroke-linecap="butt" stroke-linejoin="miter" stroke="rgb(0%, 0%, 0%)" stroke-opacity="1" stroke-miterlimit="10" d="M 53.380844 -0.783844 L 49.083969 -20.998687 " transform="matrix(1, 0, 0, -1, 37.084, 55.806)"/>
<g fill="rgb(0%, 0%, 0%)" fill-opacity="1">
<use xlink:href="#glyph-1-0" x="92.417" y="76.359"/>
</g>
<path fill="none" stroke-width="0.3985" stroke-linecap="butt" stroke-linejoin="miter" stroke="rgb(0%, 0%, 0%)" stroke-opacity="1" stroke-miterlimit="10" d="M 41.13475 -28.22525 L 20.400375 -30.404937 " transform="matrix(1, 0, 0, -1, 37.084, 55.806)"/>
<g fill="rgb(0%, 0%, 0%)" fill-opacity="1">
<use xlink:href="#glyph-1-0" x="71.953" y="94.784"/>
</g>
<path fill="none" stroke-width="0.3985" stroke-linecap="butt" stroke-linejoin="miter" stroke="rgb(0%, 0%, 0%)" stroke-opacity="1" stroke-miterlimit="10" d="M 10.998031 -24.705719 L 2.841781 -6.385406 " transform="matrix(1, 0, 0, -1, 37.084, 55.806)"/>
<g fill="rgb(0%, 0%, 0%)" fill-opacity="1">
<use xlink:href="#glyph-1-0" x="33.927" y="81.016"/>
</g>
<path fill="none" stroke-width="0.3985" stroke-linecap="butt" stroke-linejoin="miter" stroke="rgb(0%, 0%, 0%)" stroke-opacity="1" stroke-miterlimit="10" d="M -5.970719 5.372406 L -19.326187 17.39975 " transform="matrix(1, 0, 0, -1, 37.084, 55.806)"/>
<g fill="rgb(0%, 0%, 0%)" fill-opacity="1">
<use xlink:href="#glyph-1-0" x="14.359" y="54.082"/>
</g>
<path fill="none" stroke-width="0.3985" stroke-linecap="butt" stroke-linejoin="miter" stroke="rgb(0%, 0%, 0%)" stroke-opacity="1" stroke-miterlimit="10" d="M -6.455094 -2.096344 L -25.912125 -8.420562 " transform="matrix(1, 0, 0, -1, 37.084, 55.806)"/>
<g fill="rgb(0%, 0%, 0%)" fill-opacity="1">
<use xlink:href="#glyph-1-0" x="25" y="70.728"/>
</g>
</svg>
