<?xml version="1.0" encoding="UTF-8"?>
<svg xmlns="http://www.w3.org/2000/svg" xmlns:xlink="http://www.w3.org/1999/xlink" width="156.775pt" height="128.571pt" viewBox="0 0 156.775 128.571">
<defs>
<g>
<g id="glyph-0-0">
<path d="M 7.796875 -8.140625 C 7.796875 -8.359375 7.796875 -8.421875 7.671875 -8.421875 C 7.609375 -8.421875 7.59375 -8.390625 7.515625 -8.265625 L 6.9375 -7.328125 C 6.390625 -8 5.578125 -8.421875 4.71875 -8.421875 C 2.53125 -8.421875 0.640625 -6.53125 0.640625 -4.09375 C 0.640625 -1.609375 2.5625 0.25 4.71875 0.25 C 6.6875 0.25 7.796875 -1.453125 7.796875 -2.765625 C 7.796875 -2.90625 7.796875 -2.96875 7.65625 -2.96875 C 7.546875 -2.96875 7.53125 -2.921875 7.53125 -2.828125 C 7.421875 -0.9375 6.03125 -0.09375 4.875 -0.09375 C 4.046875 -0.09375 1.75 -0.59375 1.75 -4.09375 C 1.75 -7.546875 4 -8.0625 4.859375 -8.0625 C 6.125 -8.0625 7.21875 -7 7.453125 -5.21875 C 7.484375 -5.0625 7.484375 -5.03125 7.625 -5.03125 C 7.796875 -5.03125 7.796875 -5.0625 7.796875 -5.3125 Z M 7.796875 -8.140625 "/>
</g>
<g id="glyph-1-0">
<path d="M 3.46875 -1.8125 L 5.8125 -1.8125 C 5.921875 -1.8125 6.109375 -1.8125 6.109375 -1.984375 C 6.109375 -2.171875 5.921875 -2.171875 5.8125 -2.171875 L 3.46875 -2.171875 L 3.46875 -4.53125 C 3.46875 -4.640625 3.46875 -4.8125 3.296875 -4.8125 C 3.109375 -4.8125 3.109375 -4.640625 3.109375 -4.53125 L 3.109375 -2.171875 L 0.75 -2.171875 C 0.640625 -2.171875 0.46875 -2.171875 0.46875 -1.984375 C 0.46875 -1.8125 0.640625 -1.8125 0.75 -1.8125 L 3.109375 -1.8125 L 3.109375 0.546875 C 3.109375 0.65625 3.109375 0.828125 3.296875 0.828125 C 3.46875 0.828125 3.46875 0.65625 3.46875 0.546875 Z M 3.46875 -1.8125 "/>
</g>
<g id="glyph-2-0">
<path d="M 3.28125 -5.109375 C 3.296875 -5.265625 3.296875 -5.5625 2.984375 -5.5625 C 2.796875 -5.5625 2.640625 -5.40625 2.671875 -5.25 L 2.671875 -5.09375 L 2.84375 -3.234375 L 1.3125 -4.34375 C 1.203125 -4.40625 1.1875 -4.4375 1.09375 -4.4375 C 0.9375 -4.4375 0.78125 -4.265625 0.78125 -4.09375 C 0.78125 -3.90625 0.890625 -3.859375 1.015625 -3.796875 L 2.71875 -2.984375 L 1.0625 -2.1875 C 0.875 -2.09375 0.78125 -2.046875 0.78125 -1.859375 C 0.78125 -1.6875 0.9375 -1.53125 1.09375 -1.53125 C 1.1875 -1.53125 1.203125 -1.53125 1.5 -1.75 L 2.84375 -2.71875 L 2.671875 -0.71875 C 2.671875 -0.46875 2.875 -0.40625 2.96875 -0.40625 C 3.125 -0.40625 3.296875 -0.484375 3.296875 -0.71875 L 3.125 -2.71875 L 4.65625 -1.609375 C 4.75 -1.546875 4.78125 -1.53125 4.859375 -1.53125 C 5.03125 -1.53125 5.1875 -1.703125 5.1875 -1.859375 C 5.1875 -2.046875 5.078125 -2.109375 4.9375 -2.171875 C 4.21875 -2.53125 4.203125 -2.53125 3.25 -2.96875 L 4.90625 -3.78125 C 5.09375 -3.875 5.1875 -3.921875 5.1875 -4.09375 C 5.1875 -4.28125 5.03125 -4.4375 4.859375 -4.4375 C 4.78125 -4.4375 4.75 -4.4375 4.453125 -4.203125 L 3.125 -3.234375 Z M 3.28125 -5.109375 "/>
</g>
</g>
<clipPath id="clip-0">
<path clip-rule="nonzero" d="M 148 119 L 156 119 L 156 128.570312 L 148 128.570312 Z M 148 119 "/>
</clipPath>
</defs>
<g fill="rgb(14.915466%, 41.850281%, 74.127197%)" fill-opacity="1">
<use xlink:href="#glyph-0-0" x="59.428" y="76.78"/>
</g>
<g fill="rgb(14.915466%, 41.850281%, 74.127197%)" fill-opacity="1">
<use xlink:href="#glyph-1-0" x="67.878" y="72.445"/>
</g>
<g fill="rgb(0%, 0%, 0%)" fill-opacity="1">
<use xlink:href="#glyph-0-0" x="29.964" y="59.769"/>
</g>
<g fill="rgb(0%, 0%, 0%)" fill-opacity="1">
<use xlink:href="#glyph-0-0" x="29.964" y="25.747"/>
</g>
<g fill="rgb(0%, 0%, 0%)" fill-opacity="1">
<use xlink:href="#glyph-2-0" x="60.667" y="8.736"/>
</g>
<g fill="rgb(0%, 0%, 0%)" fill-opacity="1">
<use xlink:href="#glyph-2-0" x="90.131" y="25.747"/>
</g>
<g fill="rgb(0%, 0%, 0%)" fill-opacity="1">
<use xlink:href="#glyph-0-0" x="88.893" y="59.769"/>
</g>
<g fill="rgb(14.915466%, 41.850281%, 74.127197%)" fill-opacity="1">
<use xlink:href="#glyph-0-0" x="118.357" y="76.78"/>
</g>
<g fill="rgb(0%, 0%, 0%)" fill-opacity="1">
<use xlink:href="#glyph-0-0" x="118.357" y="110.803"/>
</g>
<g clip-path="url(#clip-0)">
<g fill="rgb(0%, 0%, 0%)" fill-opacity="1">
<use xlink:href="#glyph-0-0" x="147.821" y="127.814"/>
</g>
</g>
<g fill="rgb(0%, 0%, 0%)" fill-opacity="1">
<use xlink:href="#glyph-0-0" x="147.821" y="59.769"/>
</g>
<g fill="rgb(0%, 0%, 0%)" fill-opacity="1">
<use xlink:href="#glyph-0-0" x="0.5" y="8.736"/>
</g>
<path fill="none" stroke-width="0.3985" stroke-linecap="butt" stroke-linejoin="miter" stroke="rgb(0%, 0%, 0%)" stroke-opacity="1" stroke-miterlimit="10" d="M -35.733281 -13.4075 L -52.694219 -3.614531 " transform="matrix(1, 0, 0, -1, 93.12, 55.78)"/>
<path fill="none" stroke-width="0.3985" stroke-linecap="butt" stroke-linejoin="miter" stroke="rgb(0%, 0%, 0%)" stroke-opacity="1" stroke-miterlimit="10" d="M -60.709844 6.588594 L -60.709844 27.444062 " transform="matrix(1, 0, 0, -1, 93.12, 55.78)"/>
<path fill="none" stroke-width="0.3985" stroke-linecap="butt" stroke-linejoin="miter" stroke="rgb(0%, 0%, 0%)" stroke-opacity="1" stroke-miterlimit="10" d="M -57.198125 6.588594 L -57.198125 27.444062 " transform="matrix(1, 0, 0, -1, 93.12, 55.78)"/>
<path fill="none" stroke-width="0.3985" stroke-linecap="butt" stroke-linejoin="miter" stroke="rgb(0%, 0%, 0%)" stroke-opacity="1" stroke-miterlimit="10" d="M -52.694219 37.651094 L -34.495 48.158906 " transform="matrix(1, 0, 0, -1, 93.12, 55.78)"/>
<path fill="none" stroke-width="0.3985" stroke-linecap="butt" stroke-linejoin="miter" stroke="rgb(0%, 0%, 0%)" stroke-opacity="1" stroke-miterlimit="10" d="M -65.209844 37.647187 L -82.170781 47.444062 " transform="matrix(1, 0, 0, -1, 93.12, 55.78)"/>
<path fill="none" stroke-width="0.3985" stroke-linecap="butt" stroke-linejoin="miter" stroke="rgb(0%, 0%, 0%)" stroke-opacity="1" stroke-miterlimit="10" d="M -24.459844 48.158906 L -5.018437 36.932344 " transform="matrix(1, 0, 0, -1, 93.12, 55.78)"/>
<path fill="none" stroke-width="0.3985" stroke-linecap="butt" stroke-linejoin="miter" stroke="rgb(0%, 0%, 0%)" stroke-opacity="1" stroke-miterlimit="10" d="M 0.00109375 27.444062 L 0.00109375 6.588594 " transform="matrix(1, 0, 0, -1, 93.12, 55.78)"/>
<path fill="none" stroke-width="0.3985" stroke-linecap="butt" stroke-linejoin="miter" stroke="rgb(14.915466%, 41.850281%, 74.127197%)" stroke-opacity="1" stroke-miterlimit="10" d="M 7.133906 -2.091094 L 24.09875 -11.884063 " transform="matrix(1, 0, 0, -1, 93.12, 55.78)"/>
<path fill="none" stroke-width="0.3985" stroke-linecap="butt" stroke-linejoin="miter" stroke="rgb(14.915466%, 41.850281%, 74.127197%)" stroke-opacity="1" stroke-miterlimit="10" d="M 5.38 -5.134063 L 22.340938 -14.927031 " transform="matrix(1, 0, 0, -1, 93.12, 55.78)"/>
<path fill="none" stroke-width="0.3985" stroke-linecap="butt" stroke-linejoin="miter" stroke="rgb(0%, 0%, 0%)" stroke-opacity="1" stroke-miterlimit="10" d="M 29.477656 -23.606719 L 29.477656 -44.462188 " transform="matrix(1, 0, 0, -1, 93.12, 55.78)"/>
<path fill="none" stroke-width="0.3985" stroke-linecap="butt" stroke-linejoin="miter" stroke="rgb(0%, 0%, 0%)" stroke-opacity="1" stroke-miterlimit="10" d="M 35.731563 -13.4075 L 52.696406 -3.614531 " transform="matrix(1, 0, 0, -1, 93.12, 55.78)"/>
<path fill="none" stroke-width="0.3985" stroke-linecap="butt" stroke-linejoin="miter" stroke="rgb(0%, 0%, 0%)" stroke-opacity="1" stroke-miterlimit="10" d="M 35.731563 -54.665313 L 52.696406 -64.462188 " transform="matrix(1, 0, 0, -1, 93.12, 55.78)"/>
<g fill="rgb(0%, 0%, 0%)" fill-opacity="1">
<use xlink:href="#glyph-2-0" x="141.434" y="111.242"/>
</g>
</svg>
