<?xml version="1.0" encoding="UTF-8"?>
<svg xmlns="http://www.w3.org/2000/svg" xmlns:xlink="http://www.w3.org/1999/xlink" width="186.239pt" height="111.56pt" viewBox="0 0 186.239 111.56">
<defs>
<g>
<g id="glyph-0-0">
<path d="M 7.796875 -8.140625 C 7.796875 -8.359375 7.796875 -8.421875 7.671875 -8.421875 C 7.609375 -8.421875 7.59375 -8.390625 7.515625 -8.265625 L 6.9375 -7.328125 C 6.390625 -8 5.578125 -8.421875 4.71875 -8.421875 C 2.53125 -8.421875 0.640625 -6.53125 0.640625 -4.09375 C 0.640625 -1.609375 2.5625 0.25 4.71875 0.25 C 6.6875 0.25 7.796875 -1.453125 7.796875 -2.765625 C 7.796875 -2.90625 7.796875 -2.96875 7.65625 -2.96875 C 7.546875 -2.96875 7.53125 -2.921875 7.53125 -2.828125 C 7.421875 -0.9375 6.03125 -0.09375 4.875 -0.09375 C 4.046875 -0.09375 1.75 -0.59375 1.75 -4.09375 C 1.75 -7.546875 4 -8.0625 4.859375 -8.0625 C 6.125 -8.0625 7.21875 -7 7.453125 -5.21875 C 7.484375 -5.0625 7.484375 -5.03125 7.625 -5.03125 C 7.796875 -5.03125 7.796875 -5.0625 7.796875 -5.3125 Z M 7.796875 -8.140625 "/>
</g>
<g id="glyph-0-1">
<path d="M 8.453125 -4.046875 C 8.453125 -6.53125 6.640625 -8.421875 4.546875 -8.421875 C 2.421875 -8.421875 0.640625 -6.5 0.640625 -4.046875 C 0.640625 -1.625 2.453125 0.25 4.546875 0.25 C 6.6875 0.25 8.453125 -1.65625 8.453125 -4.046875 Z M 4.546875 -0.03125 C 3.328125 -0.03125 1.75 -1.171875 1.75 -4.234375 C 1.75 -7.15625 3.421875 -8.15625 4.546875 -8.15625 C 5.71875 -8.15625 7.34375 -7.125 7.34375 -4.234375 C 7.34375 -1.125 5.71875 -0.03125 4.546875 -0.03125 Z M 4.546875 -0.03125 "/>
</g>
</g>
<clipPath id="clip-0">
<path clip-rule="nonzero" d="M 30 102 L 38 102 L 38 111.558594 L 30 111.558594 Z M 30 102 "/>
</clipPath>
</defs>
<g fill="rgb(14.915466%, 41.850281%, 74.127197%)" fill-opacity="1">
<use xlink:href="#glyph-0-0" x="177.284" y="25.747"/>
</g>
<g fill="rgb(0%, 0%, 0%)" fill-opacity="1">
<use xlink:href="#glyph-0-0" x="147.82" y="8.736"/>
</g>
<g fill="rgb(0%, 0%, 0%)" fill-opacity="1">
<use xlink:href="#glyph-0-0" x="118.357" y="25.747"/>
</g>
<g fill="rgb(0%, 0%, 0%)" fill-opacity="1">
<use xlink:href="#glyph-0-0" x="88.892" y="8.736"/>
</g>
<g fill="rgb(0%, 0%, 0%)" fill-opacity="1">
<use xlink:href="#glyph-0-0" x="59.428" y="25.747"/>
</g>
<g fill="rgb(0%, 0%, 0%)" fill-opacity="1">
<use xlink:href="#glyph-0-0" x="59.428" y="59.769"/>
</g>
<g fill="rgb(0%, 0%, 0%)" fill-opacity="1">
<use xlink:href="#glyph-0-0" x="29.964" y="76.78"/>
</g>
<g fill="rgb(0%, 0%, 0%)" fill-opacity="1">
<use xlink:href="#glyph-0-0" x="0.5" y="59.769"/>
</g>
<g clip-path="url(#clip-0)">
<g fill="rgb(0%, 0%, 0%)" fill-opacity="1">
<use xlink:href="#glyph-0-0" x="29.964" y="110.803"/>
</g>
</g>
<g fill="rgb(0%, 0%, 0%)" fill-opacity="1">
<use xlink:href="#glyph-0-0" x="101.345" y="55.211"/>
</g>
<g fill="rgb(14.915466%, 41.850281%, 74.127197%)" fill-opacity="1">
<use xlink:href="#glyph-0-1" x="135.042" y="55.211"/>
</g>
<path fill="none" stroke-width="0.3985" stroke-linecap="butt" stroke-linejoin="miter" stroke="rgb(14.915466%, 41.850281%, 74.127197%)" stroke-opacity="1" stroke-miterlimit="10" d="M 140.242594 87.188 L 123.281656 96.980969 " transform="matrix(1, 0, 0, -1, 34.191, 106.813)"/>
<path fill="none" stroke-width="0.3985" stroke-linecap="butt" stroke-linejoin="miter" stroke="rgb(14.915466%, 41.850281%, 74.127197%)" stroke-opacity="1" stroke-miterlimit="10" d="M 142.000406 90.227063 L 125.039469 100.020031 " transform="matrix(1, 0, 0, -1, 34.191, 106.813)"/>
<path fill="none" stroke-width="0.3985" stroke-linecap="butt" stroke-linejoin="miter" stroke="rgb(14.915466%, 41.850281%, 74.127197%)" stroke-opacity="1" stroke-miterlimit="10" d="M 111.644937 98.496594 L 94.684 88.703625 " transform="matrix(1, 0, 0, -1, 34.191, 106.813)"/>
<path fill="none" stroke-width="0.3985" stroke-linecap="butt" stroke-linejoin="miter" stroke="rgb(0%, 0%, 0%)" stroke-opacity="1" stroke-miterlimit="10" d="M 82.172281 88.707531 L 65.207437 98.5005 " transform="matrix(1, 0, 0, -1, 34.191, 106.813)"/>
<path fill="none" stroke-width="0.3985" stroke-linecap="butt" stroke-linejoin="miter" stroke="rgb(0%, 0%, 0%)" stroke-opacity="1" stroke-miterlimit="10" d="M 84.805094 78.813 L 75.031656 61.891125 " transform="matrix(1, 0, 0, -1, 34.191, 106.813)"/>
<path fill="none" stroke-width="0.3985" stroke-linecap="butt" stroke-linejoin="miter" stroke="rgb(14.915466%, 41.850281%, 74.127197%)" stroke-opacity="1" stroke-miterlimit="10" d="M 92.055094 78.813 L 101.828531 61.891125 " transform="matrix(1, 0, 0, -1, 34.191, 106.813)"/>
<path fill="none" stroke-width="0.3985" stroke-linecap="butt" stroke-linejoin="miter" stroke="rgb(0%, 0%, 0%)" stroke-opacity="1" stroke-miterlimit="10" d="M 52.695719 98.496594 L 35.730875 88.703625 " transform="matrix(1, 0, 0, -1, 34.191, 106.813)"/>
<path fill="none" stroke-width="0.3985" stroke-linecap="butt" stroke-linejoin="miter" stroke="rgb(0%, 0%, 0%)" stroke-opacity="1" stroke-miterlimit="10" d="M 29.476969 78.5005 L 29.476969 57.645031 " transform="matrix(1, 0, 0, -1, 34.191, 106.813)"/>
<path fill="none" stroke-width="0.3985" stroke-linecap="butt" stroke-linejoin="miter" stroke="rgb(0%, 0%, 0%)" stroke-opacity="1" stroke-miterlimit="10" d="M 24.098062 45.922375 L 7.133219 36.129406 " transform="matrix(1, 0, 0, -1, 34.191, 106.813)"/>
<path fill="none" stroke-width="0.3985" stroke-linecap="butt" stroke-linejoin="miter" stroke="rgb(0%, 0%, 0%)" stroke-opacity="1" stroke-miterlimit="10" d="M 22.34025 48.961438 L 5.379312 39.168469 " transform="matrix(1, 0, 0, -1, 34.191, 106.813)"/>
<path fill="none" stroke-width="0.3985" stroke-linecap="butt" stroke-linejoin="miter" stroke="rgb(0%, 0%, 0%)" stroke-opacity="1" stroke-miterlimit="10" d="M -6.257406 37.648938 L -23.218344 47.441906 " transform="matrix(1, 0, 0, -1, 34.191, 106.813)"/>
<path fill="none" stroke-width="0.3985" stroke-linecap="butt" stroke-linejoin="miter" stroke="rgb(0%, 0%, 0%)" stroke-opacity="1" stroke-miterlimit="10" d="M 0.00040625 27.445813 L 0.00040625 6.590344 " transform="matrix(1, 0, 0, -1, 34.191, 106.813)"/>
</svg>
