<?xml version="1.0" encoding="UTF-8"?>
<svg xmlns="http://www.w3.org/2000/svg" xmlns:xlink="http://www.w3.org/1999/xlink" width="156.775pt" height="111.56pt" viewBox="0 0 156.775 111.56">
<defs>
<g>
<g id="glyph-0-0">
<path d="M 7.796875 -8.140625 C 7.796875 -8.359375 7.796875 -8.421875 7.671875 -8.421875 C 7.609375 -8.421875 7.59375 -8.390625 7.515625 -8.265625 L 6.9375 -7.328125 C 6.390625 -8 5.578125 -8.421875 4.71875 -8.421875 C 2.53125 -8.421875 0.640625 -6.53125 0.640625 -4.09375 C 0.640625 -1.609375 2.5625 0.25 4.71875 0.25 C 6.6875 0.25 7.796875 -1.453125 7.796875 -2.765625 C 7.796875 -2.90625 7.796875 -2.96875 7.65625 -2.96875 C 7.546875 -2.96875 7.53125 -2.921875 7.53125 -2.828125 C 7.421875 -0.9375 6.03125 -0.09375 4.875 -0.09375 C 4.046875 -0.09375 1.75 -0.59375 1.75 -4.09375 C 1.75 -7.546875 4 -8.0625 4.859375 -8.0625 C 6.125 -8.0625 7.21875 -7 7.453125 -5.21875 C 7.484375 -5.0625 7.484375 -5.03125 7.625 -5.03125 C 7.796875 -5.03125 7.796875 -5.0625 7.796875 -5.3125 Z M 7.796875 -8.140625 "/>
</g>
<g id="glyph-1-0">
<path d="M 3.46875 -1.8125 L 5.8125 -1.8125 C 5.921875 -1.8125 6.109375 -1.8125 6.109375 -1.984375 C 6.109375 -2.171875 5.921875 -2.171875 5.8125 -2.171875 L 3.46875 -2.171875 L 3.46875 -4.53125 C 3.46875 -4.640625 3.46875 -4.8125 3.296875 -4.8125 C 3.109375 -4.8125 3.109375 -4.640625 3.109375 -4.53125 L 3.109375 -2.171875 L 0.75 -2.171875 C 0.640625 -2.171875 0.46875 -2.171875 0.46875 -1.984375 C 0.46875 -1.8125 0.640625 -1.8125 0.75 -1.8125 L 3.109375 -1.8125 L 3.109375 0.546875 C 3.109375 0.65625 3.109375 0.828125 3.296875 0.828125 C 3.46875 0.828125 3.46875 0.65625 3.46875 0.546875 Z M 3.46875 -1.8125 "/>
</g>
</g>
<clipPath id="clip-0">
<path clip-rule="nonzero" d="M 148 102 L 156 102 L 156 111.558594 L 148 111.558594 Z M 148 102 "/>
</clipPath>
</defs>
<g fill="rgb(0%, 0%, 0%)" fill-opacity="1">
<use xlink:href="#glyph-0-0" x="29.964" y="76.78"/>
</g>
<g fill="rgb(14.915466%, 41.850281%, 74.127197%)" fill-opacity="1">
<use xlink:href="#glyph-0-0" x="0.5" y="59.769"/>
</g>
<g fill="rgb(14.915466%, 41.850281%, 74.127197%)" fill-opacity="1">
<use xlink:href="#glyph-1-0" x="8.949" y="55.441"/>
</g>
<g fill="rgb(0%, 0%, 0%)" fill-opacity="1">
<use xlink:href="#glyph-0-0" x="147.82" y="76.78"/>
</g>
<g fill="rgb(0%, 0%, 0%)" fill-opacity="1">
<use xlink:href="#glyph-0-0" x="118.357" y="59.769"/>
</g>
<g fill="rgb(0%, 0%, 0%)" fill-opacity="1">
<use xlink:href="#glyph-0-0" x="88.892" y="76.78"/>
</g>
<g fill="rgb(0%, 0%, 0%)" fill-opacity="1">
<use xlink:href="#glyph-0-0" x="59.428" y="59.769"/>
</g>
<g fill="rgb(0%, 0%, 0%)" fill-opacity="1">
<use xlink:href="#glyph-0-0" x="59.428" y="25.747"/>
</g>
<g fill="rgb(0%, 0%, 0%)" fill-opacity="1">
<use xlink:href="#glyph-0-0" x="88.892" y="8.736"/>
</g>
<g fill="rgb(0%, 0%, 0%)" fill-opacity="1">
<use xlink:href="#glyph-0-0" x="29.964" y="8.736"/>
</g>
<g clip-path="url(#clip-0)">
<g fill="rgb(0%, 0%, 0%)" fill-opacity="1">
<use xlink:href="#glyph-0-0" x="147.82" y="110.803"/>
</g>
</g>
<path fill="none" stroke-width="0.3985" stroke-linecap="butt" stroke-linejoin="miter" stroke="rgb(0%, 0%, 0%)" stroke-opacity="1" stroke-miterlimit="10" d="M -6.257406 -64.463938 L -23.218344 -54.667063 " transform="matrix(1, 0, 0, -1, 34.191, 4.747)"/>
<path fill="none" stroke-width="0.3985" stroke-linecap="butt" stroke-linejoin="miter" stroke="rgb(0%, 0%, 0%)" stroke-opacity="1" stroke-miterlimit="10" d="M 6.258219 -64.463938 L 23.219156 -54.667063 " transform="matrix(1, 0, 0, -1, 34.191, 4.747)"/>
<path fill="none" stroke-width="0.3985" stroke-linecap="butt" stroke-linejoin="miter" stroke="rgb(0%, 0%, 0%)" stroke-opacity="1" stroke-miterlimit="10" d="M 111.644937 -64.460031 L 94.684 -54.667063 " transform="matrix(1, 0, 0, -1, 34.191, 4.747)"/>
<path fill="none" stroke-width="0.3985" stroke-linecap="butt" stroke-linejoin="miter" stroke="rgb(0%, 0%, 0%)" stroke-opacity="1" stroke-miterlimit="10" d="M 117.906656 -74.663156 L 117.906656 -95.518625 " transform="matrix(1, 0, 0, -1, 34.191, 4.747)"/>
<path fill="none" stroke-width="0.3985" stroke-linecap="butt" stroke-linejoin="miter" stroke="rgb(0%, 0%, 0%)" stroke-opacity="1" stroke-miterlimit="10" d="M 82.172281 -54.670969 L 65.207437 -64.463938 " transform="matrix(1, 0, 0, -1, 34.191, 4.747)"/>
<path fill="none" stroke-width="0.3985" stroke-linecap="butt" stroke-linejoin="miter" stroke="rgb(0%, 0%, 0%)" stroke-opacity="1" stroke-miterlimit="10" d="M 52.695719 -64.460031 L 35.730875 -54.667063 " transform="matrix(1, 0, 0, -1, 34.191, 4.747)"/>
<path fill="none" stroke-width="0.3985" stroke-linecap="butt" stroke-linejoin="miter" stroke="rgb(0%, 0%, 0%)" stroke-opacity="1" stroke-miterlimit="10" d="M 29.476969 -44.463938 L 29.476969 -23.608469 " transform="matrix(1, 0, 0, -1, 34.191, 4.747)"/>
<path fill="none" stroke-width="0.3985" stroke-linecap="butt" stroke-linejoin="miter" stroke="rgb(0%, 0%, 0%)" stroke-opacity="1" stroke-miterlimit="10" d="M 35.730875 -13.405344 L 52.695719 -3.612375 " transform="matrix(1, 0, 0, -1, 34.191, 4.747)"/>
<path fill="none" stroke-width="0.3985" stroke-linecap="butt" stroke-linejoin="miter" stroke="rgb(0%, 0%, 0%)" stroke-opacity="1" stroke-miterlimit="10" d="M 23.219156 -13.405344 L 6.258219 -3.612375 " transform="matrix(1, 0, 0, -1, 34.191, 4.747)"/>
</svg>
