<?xml version="1.0" encoding="UTF-8"?>
<svg xmlns="http://www.w3.org/2000/svg" xmlns:xlink="http://www.w3.org/1999/xlink" width="94.833pt" height="139.388pt" viewBox="0 0 94.833 139.388">
<defs>
<g>
<g id="glyph-0-0">
<path d="M 7.796875 -8.140625 C 7.796875 -8.359375 7.796875 -8.421875 7.671875 -8.421875 C 7.609375 -8.421875 7.59375 -8.390625 7.515625 -8.265625 L 6.9375 -7.328125 C 6.390625 -8 5.578125 -8.421875 4.71875 -8.421875 C 2.53125 -8.421875 0.640625 -6.53125 0.640625 -4.09375 C 0.640625 -1.609375 2.5625 0.25 4.71875 0.25 C 6.6875 0.25 7.796875 -1.453125 7.796875 -2.765625 C 7.796875 -2.90625 7.796875 -2.96875 7.65625 -2.96875 C 7.546875 -2.96875 7.53125 -2.921875 7.53125 -2.828125 C 7.421875 -0.9375 6.03125 -0.09375 4.875 -0.09375 C 4.046875 -0.09375 1.75 -0.59375 1.75 -4.09375 C 1.75 -7.546875 4 -8.0625 4.859375 -8.0625 C 6.125 -8.0625 7.21875 -7 7.453125 -5.21875 C 7.484375 -5.0625 7.484375 -5.03125 7.625 -5.03125 C 7.796875 -5.03125 7.796875 -5.0625 7.796875 -5.3125 Z M 7.796875 -8.140625 "/>
</g>
</g>
</defs>
<g fill="rgb(0%, 0%, 0%)" fill-opacity="1">
<use xlink:href="#glyph-0-0" x="82.319" y="78.749"/>
</g>
<g fill="rgb(0%, 0%, 0%)" fill-opacity="1">
<use xlink:href="#glyph-0-0" x="52.855" y="95.76"/>
</g>
<g fill="rgb(58.456421%, 19.412231%, 61.727905%)" fill-opacity="1">
<use xlink:href="#glyph-0-0" x="20.498" y="106.274"/>
</g>
<g fill="rgb(0%, 0%, 0%)" fill-opacity="1">
<use xlink:href="#glyph-0-0" x="0.5" y="78.749"/>
</g>
<g fill="rgb(0%, 0%, 0%)" fill-opacity="1">
<use xlink:href="#glyph-0-0" x="20.498" y="51.225"/>
</g>
<g fill="rgb(58.456421%, 19.412231%, 61.727905%)" fill-opacity="1">
<use xlink:href="#glyph-0-0" x="52.855" y="61.738"/>
</g>
<g fill="rgb(0%, 0%, 0%)" fill-opacity="1">
<use xlink:href="#glyph-0-0" x="55.278" y="27.802"/>
</g>
<g fill="rgb(0%, 0%, 0%)" fill-opacity="1">
<use xlink:href="#glyph-0-0" x="85.878" y="12.932"/>
</g>
<g fill="rgb(0%, 0%, 0%)" fill-opacity="1">
<use xlink:href="#glyph-0-0" x="27.1" y="8.736"/>
</g>
<g fill="rgb(0%, 0%, 0%)" fill-opacity="1">
<use xlink:href="#glyph-0-0" x="9.985" y="138.631"/>
</g>
<path fill="none" stroke-width="0.3985" stroke-linecap="butt" stroke-linejoin="miter" stroke="rgb(0%, 0%, 0%)" stroke-opacity="1" stroke-miterlimit="10" d="M 23.218781 -20.629906 L 6.257844 -30.426781 " transform="matrix(1, 0, 0, -1, 57.082, 57.749)"/>
<path fill="none" stroke-width="0.3985" stroke-linecap="butt" stroke-linejoin="miter" stroke="rgb(0%, 0%, 0%)" stroke-opacity="1" stroke-miterlimit="10" d="M 23.218781 -13.40725 L 6.257844 -3.610375 " transform="matrix(1, 0, 0, -1, 57.082, 57.749)"/>
<path fill="none" stroke-width="0.3985" stroke-linecap="butt" stroke-linejoin="miter" stroke="rgb(0%, 0%, 0%)" stroke-opacity="1" stroke-miterlimit="10" d="M -36.835906 -38.411156 L -47.914031 -23.161156 " transform="matrix(1, 0, 0, -1, 57.082, 57.749)"/>
<path fill="none" stroke-width="0.3985" stroke-linecap="butt" stroke-linejoin="miter" stroke="rgb(0%, 0%, 0%)" stroke-opacity="1" stroke-miterlimit="10" d="M -34.472625 -51.028344 L -40.785125 -70.446312 " transform="matrix(1, 0, 0, -1, 57.082, 57.749)"/>
<path fill="none" stroke-width="0.3985" stroke-linecap="butt" stroke-linejoin="miter" stroke="rgb(0%, 0%, 0%)" stroke-opacity="1" stroke-miterlimit="10" d="M -47.914031 -10.876 L -36.832 4.374 " transform="matrix(1, 0, 0, -1, 57.082, 57.749)"/>
<path fill="none" stroke-width="0.3985" stroke-linecap="butt" stroke-linejoin="miter" stroke="rgb(0%, 0%, 0%)" stroke-opacity="1" stroke-miterlimit="10" d="M -25.914031 8.420875 L -6.457 2.096656 " transform="matrix(1, 0, 0, -1, 57.082, 57.749)"/>
<path fill="none" stroke-width="0.3985" stroke-linecap="butt" stroke-linejoin="miter" stroke="rgb(0%, 0%, 0%)" stroke-opacity="1" stroke-miterlimit="10" d="M 0.468781 6.584938 L 1.953156 27.366188 " transform="matrix(1, 0, 0, -1, 57.082, 57.749)"/>
<path fill="none" stroke-width="0.3985" stroke-linecap="butt" stroke-linejoin="miter" stroke="rgb(0%, 0%, 0%)" stroke-opacity="1" stroke-miterlimit="10" d="M 8.757844 37.03025 L 26.703156 45.749 " transform="matrix(1, 0, 0, -1, 57.082, 57.749)"/>
<path fill="none" stroke-width="0.3985" stroke-linecap="butt" stroke-linejoin="miter" stroke="rgb(0%, 0%, 0%)" stroke-opacity="1" stroke-miterlimit="10" d="M -3.746063 38.124 L -19.597625 48.850563 " transform="matrix(1, 0, 0, -1, 57.082, 57.749)"/>
</svg>
