<?xml version="1.0" encoding="UTF-8"?>
<svg xmlns="http://www.w3.org/2000/svg" xmlns:xlink="http://www.w3.org/1999/xlink" width="68.543pt" height="60.526pt" viewBox="0 0 68.543 60.526">
<defs>
<g>
<g id="glyph-0-0">
<path d="M 7.796875 -8.140625 C 7.796875 -8.359375 7.796875 -8.421875 7.671875 -8.421875 C 7.609375 -8.421875 7.59375 -8.390625 7.515625 -8.265625 L 6.9375 -7.328125 C 6.390625 -8 5.578125 -8.421875 4.71875 -8.421875 C 2.53125 -8.421875 0.640625 -6.53125 0.640625 -4.09375 C 0.640625 -1.609375 2.5625 0.25 4.71875 0.25 C 6.6875 0.25 7.796875 -1.453125 7.796875 -2.765625 C 7.796875 -2.90625 7.796875 -2.96875 7.65625 -2.96875 C 7.546875 -2.96875 7.53125 -2.921875 7.53125 -2.828125 C 7.421875 -0.9375 6.03125 -0.09375 4.875 -0.09375 C 4.046875 -0.09375 1.75 -0.59375 1.75 -4.09375 C 1.75 -7.546875 4 -8.0625 4.859375 -8.0625 C 6.125 -8.0625 7.21875 -7 7.453125 -5.21875 C 7.484375 -5.0625 7.484375 -5.03125 7.625 -5.03125 C 7.796875 -5.03125 7.796875 -5.0625 7.796875 -5.3125 Z M 7.796875 -8.140625 "/>
</g>
<g id="glyph-0-1">
<path d="M 7.140625 -7.25 C 7.140625 -7.703125 7.171875 -7.8125 8.03125 -7.8125 L 8.265625 -7.8125 L 8.265625 -8.15625 C 7.984375 -8.140625 7 -8.140625 6.65625 -8.140625 C 6.296875 -8.140625 5.3125 -8.140625 5.03125 -8.15625 L 5.03125 -7.8125 L 5.265625 -7.8125 C 6.125 -7.8125 6.171875 -7.703125 6.171875 -7.25 L 6.171875 -4.421875 L 2.59375 -4.421875 L 2.59375 -7.25 C 2.59375 -7.703125 2.625 -7.8125 3.484375 -7.8125 L 3.734375 -7.8125 L 3.734375 -8.15625 C 3.4375 -8.140625 2.46875 -8.140625 2.109375 -8.140625 C 1.75 -8.140625 0.78125 -8.140625 0.484375 -8.15625 L 0.484375 -7.8125 L 0.734375 -7.8125 C 1.59375 -7.8125 1.625 -7.703125 1.625 -7.25 L 1.625 -0.90625 C 1.625 -0.46875 1.59375 -0.34375 0.734375 -0.34375 L 0.484375 -0.34375 L 0.484375 0 C 0.78125 -0.03125 1.75 -0.03125 2.109375 -0.03125 C 2.46875 -0.03125 3.4375 -0.03125 3.734375 0 L 3.734375 -0.34375 L 3.484375 -0.34375 C 2.625 -0.34375 2.59375 -0.46875 2.59375 -0.90625 L 2.59375 -4.078125 L 6.171875 -4.078125 L 6.171875 -0.90625 C 6.171875 -0.46875 6.125 -0.34375 5.265625 -0.34375 L 5.03125 -0.34375 L 5.03125 0 C 5.3125 -0.03125 6.296875 -0.03125 6.640625 -0.03125 C 7 -0.03125 7.984375 -0.03125 8.265625 0 L 8.265625 -0.34375 L 8.03125 -0.34375 C 7.171875 -0.34375 7.140625 -0.46875 7.140625 -0.90625 Z M 7.140625 -7.25 "/>
</g>
<g id="glyph-0-2">
<path d="M 8.453125 -4.046875 C 8.453125 -6.53125 6.640625 -8.421875 4.546875 -8.421875 C 2.421875 -8.421875 0.640625 -6.5 0.640625 -4.046875 C 0.640625 -1.625 2.453125 0.25 4.546875 0.25 C 6.6875 0.25 8.453125 -1.65625 8.453125 -4.046875 Z M 4.546875 -0.03125 C 3.328125 -0.03125 1.75 -1.171875 1.75 -4.234375 C 1.75 -7.15625 3.421875 -8.15625 4.546875 -8.15625 C 5.71875 -8.15625 7.34375 -7.125 7.34375 -4.234375 C 7.34375 -1.125 5.71875 -0.03125 4.546875 -0.03125 Z M 4.546875 -0.03125 "/>
</g>
</g>
<clipPath id="clip-0">
<path clip-rule="nonzero" d="M 60 51 L 68 51 L 68 60.527344 L 60 60.527344 Z M 60 51 "/>
</clipPath>
</defs>
<g clip-path="url(#clip-0)">
<g fill="rgb(58.456421%, 19.412231%, 61.727905%)" fill-opacity="1">
<use xlink:href="#glyph-0-0" x="59.589" y="59.769"/>
</g>
</g>
<g fill="rgb(58.456421%, 19.412231%, 61.727905%)" fill-opacity="1">
<use xlink:href="#glyph-0-1" x="29.964" y="8.735"/>
</g>
<g fill="rgb(0%, 0%, 0%)" fill-opacity="1">
<use xlink:href="#glyph-0-2" x="29.799" y="42.758"/>
</g>
<g fill="rgb(0%, 0%, 0%)" fill-opacity="1">
<use xlink:href="#glyph-0-1" x="0.5" y="59.769"/>
</g>
<path fill="none" stroke-width="0.3985" stroke-linecap="butt" stroke-linejoin="miter" stroke="rgb(0%, 0%, 0%)" stroke-opacity="1" stroke-miterlimit="10" d="M 22.89325 13.2165 L 6.416688 3.704781 " transform="matrix(1, 0, 0, -1, 4.888, 55.779)"/>
</svg>
